<svg xmlns="http://www.w3.org/2000/svg" width="244" height="241" fill="none" viewBox="0 0 244 241"><g clip-path="url(#a)"><path fill="#F3D7EC" d="M111.408.01H73.717v39.294h37.691V.011Z"/><path fill="#455A64" d="M108.855.013h-37.69v39.293h37.69V.013Z"/><path fill="#F3D7EC" d="M108.869 39.315H71.151V0h37.718v39.315Z"/><path fill="#fff" d="M103.786 5.296H76.228v28.728h27.558V5.296Z"/><path fill="#F3D7EC" d="M76.229 34.21s-.24.325-.682.794a95.666 95.666 0 0 1-1.75 1.777 78.94 78.94 0 0 1-1.8 1.725c-.468.43-.771.686-.798.665-.026-.021.234-.325.676-.788a72.756 72.756 0 0 1 1.756-1.777 77.384 77.384 0 0 1 1.805-1.725c.468-.43.771-.686.792-.66v-.01Zm27.563-.068s.325.239.793.68c.463.442 1.091 1.06 1.778 1.752.681.692 1.293 1.33 1.724 1.799.431.468.687.771.665.798-.021.021-.324-.234-.787-.676a72.319 72.319 0 0 1-1.778-1.756 76.214 76.214 0 0 1-1.724-1.804c-.432-.469-.687-.772-.66-.794h-.011Zm-.08-28.772s.239-.325.681-.793a96.69 96.69 0 0 1 1.751-1.778 80.083 80.083 0 0 1 1.799-1.724c.468-.431.772-.686.798-.665.022.021-.234.324-.676.787a71.628 71.628 0 0 1-1.756 1.778 77.704 77.704 0 0 1-1.804 1.724c-.468.432-.772.687-.793.66v.011Zm-27.558.07s-.325-.24-.793-.682a96.483 96.483 0 0 1-1.778-1.751 79.174 79.174 0 0 1-1.724-1.799c-.431-.468-.687-.772-.665-.798.02-.021.324.234.787.676a72.83 72.83 0 0 1 1.778 1.756 77.495 77.495 0 0 1 1.724 1.804c.431.469.687.772.66.793h.01Z"/><path fill="#F3D7EC" d="M103.712 34.024s0-.047-.005-.138c0-.096 0-.229-.005-.4 0-.361-.006-.877-.011-1.548-.005-1.362-.016-3.342-.027-5.854-.01-5.03-.031-12.199-.053-20.783l.107.106c-8.02 0-17.446.01-27.484.016l.123-.122-.016 28.729-.107-.107c8.234.022 15.094.043 19.9.053 2.4.011 4.289.022 5.588.027.644 0 1.134.01 1.479.01.165 0 .288 0 .384.006.085 0 .133 0 .133.005 0 0-.038 0-.123.006-.09 0-.213 0-.372.005-.341 0-.825.005-1.459.01-1.293.006-3.171.017-5.566.027-4.822.01-11.704.032-19.97.053h-.106v-.106c0-8.318-.01-18.186-.016-28.729v-.122h.123c10.037.005 19.458.01 27.483.016h.107v.106c-.021 8.611-.043 15.802-.053 20.852-.011 2.502-.022 4.476-.027 5.833-.005.666-.011 1.177-.011 1.533 0 .165 0 .293-.005.389 0 .085 0 .127-.005.127h-.006Z"/><path fill="#F3D7EC" d="M84.93 27.44c-2.08-2.08-2.203-5.8-.271-8.02.766-.878 1.783-1.522 2.496-2.448 1.538-2 1.517-5.157 3.65-6.503 1.56-.98 3.8-.42 4.94 1.027 1.139 1.447 1.235 3.55.495 5.237-.548 1.245-1.496 2.304-1.884 3.608-.4 1.33-.17 2.794-.586 4.12-.5 1.602-2.198 2.618-3.768 3.198-1.575.585-3.597.447-5.072-.223"/><path fill="#58126A" d="M92.68 14.21s-.08.277-.266.761a37.478 37.478 0 0 1-.857 2.017 56.688 56.688 0 0 1-3.406 6.381 55.85 55.85 0 0 1-4.2 5.892 39.138 39.138 0 0 1-1.426 1.666c-.351.383-.548.585-.559.575-.01-.011.16-.24.49-.639.33-.4.798-.985 1.362-1.708a67.239 67.239 0 0 0 4.125-5.913 69.966 69.966 0 0 0 3.46-6.323c.399-.83.713-1.511.925-1.985.213-.468.341-.73.357-.724h-.005Z"/><path fill="#58126A" d="M86.98 19.186c.032 0 .112.548.223 1.453.107.905.245 2.172.384 3.598l-.187-.096c.192-.112.389-.229.596-.346 1.379-.803 2.63-1.517 3.545-2.028.915-.505 1.49-.803 1.506-.776.016.031-.527.383-1.416.925a174.854 174.854 0 0 1-4.103 2.438l-.165.096-.016-.192a160.06 160.06 0 0 1-.303-3.608c-.064-.916-.09-1.464-.059-1.47l-.005.006Zm7.238-2.123c.016.032-.34.229-.926.521-.586.293-1.405.681-2.315 1.097-.096.042-.192.09-.282.127l-.15.07-.026-.16a63.007 63.007 0 0 1-.33-2.331c-.075-.59-.101-.953-.07-.958.033 0 .118.351.235.931.117.586.26 1.4.41 2.315l-.176-.09c.09-.043.186-.085.282-.128a90.57 90.57 0 0 1 2.347-1.032c.607-.25.99-.394 1-.362Z"/><path fill="#EBEBEB" d="M156.512 212.183h-5.497v25.956h5.497v-25.956Zm46.734 0h-5.498v25.956h5.498v-25.956Zm8.054-32.625h-69.379v6.419H211.3v-6.419Z"/><path fill="#EBEBEB" d="m208.531 212.513-62.391.133v-26.669h62.391v26.536Z"/><path fill="#E0E0E0" d="M211.293 185.977c0 .069-15.53.122-34.689.122-19.16 0-34.69-.059-34.69-.122 0-.064 15.53-.123 34.69-.123 19.159 0 34.689.053 34.689.123Zm-2.99 26.669c0 .069-13.864.122-30.964.122-17.1 0-30.97-.053-30.97-.122 0-.07 13.864-.123 30.97-.123 17.105 0 30.964.053 30.964.123Zm-4.919-5.402s-.005-.107-.01-.309c0-.207 0-.5-.011-.883 0-.783-.011-1.932-.021-3.412-.011-2.97-.027-7.286-.043-12.704l.08.08c-12.512.011-31.23.027-52.098.043l.122-.123v17.308l-.122-.123c14.987.022 27.994.043 37.265.059 4.636.016 8.34.027 10.889.032 1.272.005 2.252.01 2.927.016.33 0 .581.005.762.005.17 0 .26.005.26.005s-.079 0-.25.006c-.175 0-.42 0-.745.005-.665 0-1.639.011-2.9.016-2.544.011-6.238.021-10.863.032-9.292.016-22.326.032-37.345.059h-.123v-17.553h.128c20.868.016 39.586.032 52.098.043h.08v.08c-.021 5.433-.032 9.771-.042 12.751-.011 1.475-.016 2.614-.022 3.396 0 .378-.005.67-.01.873 0 .197-.011.287-.011.287l.005.011Z"/><path fill="#E0E0E0" d="M153.352 204.971c.048.048-.357.564-.905 1.155-.548.591-1.038 1.033-1.086.985-.048-.048.357-.564.905-1.155.548-.591 1.038-1.033 1.086-.985Zm-.001-12.768c-.053.048-.554-.425-1.123-1.048-.57-.628-.99-1.171-.942-1.219.053-.048.553.426 1.123 1.049.569.628.99 1.171.942 1.218Zm50.129-2.214c.053.054-.447.607-1.134 1.203-.691.591-1.25 1.059-1.298 1.017-.053-.053.447-.607 1.133-1.203.687-.591 1.251-1.059 1.299-1.011v-.006Zm-.09 17.255c-.048.048-.612-.421-1.256-1.043-.644-.628-1.134-1.177-1.086-1.224.048-.048.612.42 1.256 1.043.644.628 1.134 1.176 1.086 1.224Z"/><path fill="#E0E0E0" d="M201.048 204.971s0-.08-.005-.223c0-.155 0-.368-.005-.65 0-.574-.011-1.415-.016-2.506-.011-2.188-.027-5.37-.043-9.389l.075.075c-10.884.011-28.213.027-47.697.048l.122-.123v12.768l-.122-.122c13.614.021 25.525.042 34.035.053 4.257.016 7.664.027 10.016.037 1.171.006 2.076.011 2.698.016.304 0 .538.006.703.006.16 0 .245.005.245.005s-.075 0-.229.005c-.165 0-.389 0-.687.006-.617 0-1.517.01-2.671.016-2.348.01-5.743.021-9.99.037-8.531.016-20.469.032-34.12.053h-.123V192.07h.128c19.484.022 36.813.038 47.697.048h.075v.075c-.016 4.039-.032 7.238-.043 9.436a260.65 260.65 0 0 0-.016 2.485c0 .277-.005.485-.005.634 0 .143-.006.207-.006.207l-.016.016Z"/><path fill="#E0E0E0" d="M181.925 197.403c-.394-.261-.83-.436-1.282-.58a4.095 4.095 0 0 0-1.267-.197h-3.513c-1.032 0-2.049.367-2.794 1.081a2.232 2.232 0 0 0-.42.505c-.303.543-.314 1.293.138 1.719.453.421 1.373.218 1.448-.399-.021.809.809 1.49 1.618 1.437.809-.053 1.501-.719 1.724-1.496-.01.687.58 1.331 1.267 1.384.686.053 1.368-.495 1.463-1.176.432.564 1.075 1.091 1.815.852a1.31 1.31 0 0 0 .841-.937c.218-.889-.324-1.709-1.038-2.188v-.005Z"/><path fill="#EBEBEB" d="M176.492 196.605c.037.069-.809.431-1.442 1.32-.65.873-.74 1.793-.815 1.777-.032 0-.053-.234.022-.601.069-.367.255-.862.59-1.325a3.407 3.407 0 0 1 1.081-.969c.324-.181.553-.229.564-.202Zm1.346.144c.069.01.058.633-.022 1.394-.08.761-.202 1.373-.271 1.368-.069 0-.059-.628.021-1.395.08-.766.202-1.378.272-1.367Zm1.692-.043s.197.048.41.277c.208.229.415.617.495 1.08.08.463.043.878.005 1.171-.042.293-.09.474-.122.468-.037 0-.048-.186-.053-.479-.006-.292 0-.692-.075-1.117a2.671 2.671 0 0 0-.388-1.017c-.155-.234-.293-.356-.266-.388l-.006.005Zm19.129 24.221h-42.753v5.008h42.753v-5.008Z"/><path fill="#E0E0E0" d="M187.908 173.06v6.45h-27.729a3.223 3.223 0 0 1-3.225-3.225 3.223 3.223 0 0 1 3.225-3.225"/><path fill="#EBEBEB" d="M178.53 174.412h9.378v3.746h-9.378a1.626 1.626 0 0 1-1.623-1.623v-.495c0-.894.729-1.623 1.623-1.623v-.005Zm9.378-7.803v6.451h-27.729a3.223 3.223 0 0 1-3.225-3.226 3.223 3.223 0 0 1 3.225-3.225h27.729Z"/><path fill="#F5F5F5" d="M178.53 167.961h9.378v3.747h-9.378a1.626 1.626 0 0 1-1.623-1.623v-.495c0-.894.729-1.624 1.623-1.624v-.005Z"/><path fill="#E0E0E0" d="m167.886 156.268-4.407 10.341h2.837l1.959-5.524-.389-4.817Z"/><path fill="#F5F5F5" d="m181.41 146.907 1.697 19.702h-14.391l-1.58-19.702h14.274Z"/><path fill="#FAFAFA" d="m180 148.471 1.49 16.504-10.804.139-1.458-16.738 10.772.095Z"/><path fill="#E0E0E0" d="m177.711 150.755.846 11.357h-5.764l-1.017-11.357h5.935Z"/><path fill="#263238" d="M233.775 238.427c0 .074-50.033.138-111.744.138-61.71 0-111.754-.064-111.754-.138 0-.075 50.023-.139 111.754-.139 61.732 0 111.744.064 111.744.139Z"/><path fill="#455A64" d="M232.646 117.731c-6.29 3.257-11.112 8.867-14.577 15.04-3.47 6.174-5.7 12.954-7.914 19.681l-1.937 34.695c7.318-12.448 13.193-27.084 14.779-41.438l-4.869-.431c3.262-.5 6.003-2.863 7.749-5.668 1.745-2.805 2.639-6.04 3.518-9.223-1.98.293-3.96.591-5.94.883 4.652-3.102 8.026-8.068 9.197-13.539h-.006Z"/><path fill="#000" d="M232.646 117.731c-6.29 3.257-11.112 8.867-14.577 15.04-3.47 6.174-5.7 12.954-7.914 19.681l-1.937 34.695c7.318-12.448 13.193-27.084 14.779-41.438l-4.869-.431c3.262-.5 6.003-2.863 7.749-5.668 1.745-2.805 2.639-6.04 3.518-9.223-1.98.293-3.96.591-5.94.883 4.652-3.102 8.026-8.068 9.197-13.539h-.006Z" opacity="0.3"/><path fill="#455A64" d="M207.127 195.28s-15.882-19.011-15.701-37.159h6.419s-6.967-4.583-6.419-7.148c.548-2.565.735-12.284.735-12.284l5.865 1.469s-4.402-2.198-4.95-5.684c-.548-3.48 1.283-19.617 1.283-19.617s7.147 7.515 9.351 15.216c2.198 7.701 7.972 16.679 6.28 40.145-1.698 23.465-2.863 25.062-2.863 25.062Zm8.052 1.798s17.206-11.463 21.033-26.094l-5.157-1.405s6.605-2.161 6.722-4.343c.117-2.182 2.097-10.037 2.097-10.037l-5.035-.107s4.018-.803 5.221-3.486c1.203-2.682 3.257-16.051 3.257-16.051s-7.392 4.476-10.846 10.186c-3.454 5.711-10.059 11.666-13.833 30.906-3.768 19.234-3.459 20.426-3.459 20.426v.005Z"/><path fill="#263238" d="M198.701 131.435s.021.064.058.197c.032.144.08.341.139.586.117.532.287 1.288.5 2.256.218.98.474 2.182.751 3.582.282 1.4.612 2.986.931 4.753.681 3.523 1.394 7.738 2.134 12.427a443.592 443.592 0 0 1 2.065 15.301 438.878 438.878 0 0 1 1.48 15.376c.351 4.731.612 8.999.755 12.587.091 1.793.133 3.416.176 4.843.048 1.426.075 2.65.085 3.656l.027 2.31v.601c0 .133 0 .203-.011.208 0 0-.011-.069-.021-.202-.005-.149-.016-.346-.027-.602-.016-.543-.042-1.32-.08-2.31-.026-1-.069-2.23-.133-3.651-.058-1.426-.117-3.044-.218-4.837-.17-3.582-.452-7.845-.814-12.577-.389-4.726-.878-9.92-1.501-15.359a471.407 471.407 0 0 0-2.044-15.296c-.724-4.689-1.421-8.904-2.075-12.433-.309-1.767-.623-3.358-.894-4.758a162.687 162.687 0 0 0-.708-3.587c-.192-.974-.346-1.735-.453-2.267-.048-.25-.085-.447-.111-.591a1.141 1.141 0 0 1-.027-.202l.016-.011Z"/><path fill="#455A64" d="M204.928 206.924s-14.534-16.493-19.048-26.461l3.407-1.459c-2.47.41-4.998-.654-6.914-2.267-1.916-1.612-3.321-3.731-4.699-5.822l4.486-.756c-4.082-1.144-7.68-3.933-9.808-7.595 5.295.873 10.085 3.779 14.034 7.414 3.199 2.943 5.908 6.365 8.505 9.857a33.894 33.894 0 0 1 3.305 5.428c2.443 5.051 6.738 15.6 6.727 21.656l.005.005Z"/><path fill="#263238" d="M236.44 145.156s-.021.058-.069.165c-.058.122-.133.276-.223.479-.213.436-.506 1.048-.889 1.831a359.295 359.295 0 0 0-3.22 6.743 369.39 369.39 0 0 0-4.54 10.106 387.78 387.78 0 0 0-5.136 12.561 390.688 390.688 0 0 0-4.651 12.752 388.619 388.619 0 0 0-5.594 17.696c-.245.835-.436 1.485-.575 1.948-.063.212-.117.377-.154.505a.815.815 0 0 1-.064.17s.006-.058.037-.175l.128-.511a265.193 265.193 0 0 1 2.597-9.149 323.2 323.2 0 0 1 3.385-10.559 355.152 355.152 0 0 1 4.636-12.768 356.74 356.74 0 0 1 5.157-12.56 327.052 327.052 0 0 1 4.598-10.091c1.363-2.847 2.491-5.141 3.305-6.706.4-.771.714-1.378.932-1.804.101-.197.186-.346.25-.468a.7.7 0 0 1 .096-.155l-.006-.01Zm-30.282 68.836s-.032-.101-.069-.303a64.195 64.195 0 0 1-.139-.878 36.544 36.544 0 0 0-.223-1.384c-.096-.537-.192-1.155-.336-1.825a66.889 66.889 0 0 0-1.107-4.7 67.74 67.74 0 0 0-1.83-5.62 70.212 70.212 0 0 0-2.342-5.429c-.804-1.628-1.575-3.076-2.273-4.257-.335-.602-.67-1.123-.952-1.592a32.478 32.478 0 0 0-.745-1.186c-.192-.304-.352-.554-.474-.751-.107-.175-.16-.266-.149-.271.005-.006.074.08.197.239.138.192.309.431.516.724.224.314.495.703.788 1.166.292.463.644.979.99 1.575a59.354 59.354 0 0 1 2.336 4.247 64.96 64.96 0 0 1 2.374 5.439 64.115 64.115 0 0 1 1.815 5.652c.463 1.767.819 3.369 1.053 4.732.133.676.213 1.293.298 1.836.086.543.139 1.011.181 1.394.038.357.064.649.091.884.016.202.021.308.011.308h-.011Z"/><path fill="#CDB8D2" d="M225.339 210.112h-31.811v6.488h31.811v-6.488Zm-28.782 6.488L200 238.426h19.224l3.204-21.826h-25.871Z"/><path fill="#263238" d="M223.386 216.6c0 .075-6.02.139-13.439.139-7.419 0-13.438-.064-13.438-.139 0-.074 6.014-.138 13.438-.138 7.425 0 13.439.064 13.439.138Z"/><path fill="#333" d="M70.912 51.188c.516-2.597 2.352-3.98 4.8-4.997 2.444-1.017 5.387-.74 7.595.724 1.475.979 2.683 2.458 4.391 2.927 2.81.771 5.897-1.496 8.617-.437 1.607.628 2.64 2.47 2.336 4.167-.303 1.698-1.916 3.071-3.64 3.098 1.836.538 2.565 3.06 1.623 4.726s-3.055 2.411-4.955 2.188c-1.9-.224-3.614-1.257-5.115-2.438-1.506-1.182-2.873-2.544-4.465-3.603-1.596-1.06-3.491-1.815-5.391-1.586-2.57.309-4.657 2.405-5.657 4.795-.996 2.39-1.086 5.056-1.06 7.643.027 2.592.155 5.215-.447 7.738-.069.298-.186.628-.468.74-.41.154-.798-.266-1.032-.639a38.01 38.01 0 0 1-5.27-13.821c-.478-2.842-.585-5.557.83-8.069 1.416-2.512 5.27-4.545 7.319-3.156"/><path fill="#FFBE9D" d="m66.713 63.498.542 26.451c.101 4.94 2.582 10.049 10.384 9.532 6.738-.958 6.913-5.684 6.876-11.538 0 0 7.382-.846 7.765-8.175.186-3.544-.027-10.868-.298-17.494-.287-7.116-6.003-12.815-13.12-13.098l-.707-.026c-7.648.138-11.8 6.716-11.448 14.354l.006-.006Z"/><path fill="#EB996E" d="M84.52 87.943s-4.635.085-9.436-3.204c0 0 2.08 5.78 9.426 5.412l.01-2.208Z"/><path fill="#263238" d="M89.39 69.64c0 .553-.474 1.006-1.054 1.017-.575.005-1.043-.431-1.043-.99 0-.554.474-1.012 1.048-1.017.58-.01 1.044.436 1.044.99h.005Zm.878-3.837c-.133.133-.905-.49-2.033-.527-1.123-.059-1.974.49-2.091.346-.059-.064.085-.303.452-.554.367-.245.98-.479 1.682-.447.702.032 1.282.314 1.612.591.336.282.442.532.378.59Zm-11.319 3.379c0 .554-.474 1.006-1.054 1.017-.575.01-1.043-.431-1.043-.99 0-.554.473-1.011 1.053-1.017.58-.01 1.043.437 1.043.99Zm.233-3.608c-.133.133-.904-.49-2.033-.527-1.123-.058-1.974.49-2.091.346-.059-.064.085-.303.457-.553.367-.245.98-.48 1.682-.448.703.032 1.283.314 1.613.591.335.282.441.532.377.59h-.005Zm3.758 8.521c0-.064.703-.16 1.841-.256.288-.016.565-.064.618-.26.074-.208-.032-.522-.16-.863-.245-.708-.495-1.447-.76-2.224-1.06-3.167-1.81-5.764-1.683-5.807.128-.042 1.091 2.49 2.145 5.658.256.782.495 1.527.73 2.235.095.33.265.708.106 1.133a.702.702 0 0 1-.49.4c-.186.048-.351.048-.49.048-1.144.015-1.852-.006-1.857-.07v.006Zm-3.29-12.928c-.122.304-1.245.112-2.57.218-1.33.08-2.411.426-2.576.144-.075-.133.122-.415.57-.697.436-.277 1.133-.532 1.931-.59.798-.054 1.517.1 1.99.313.48.213.714.463.66.607l-.005.005Zm10.336 1.357c-.208.25-.975-.047-1.906-.095-.931-.086-1.73.1-1.9-.17-.074-.134.059-.384.415-.613.352-.229.926-.404 1.57-.356.639.047 1.187.298 1.501.574.32.277.415.543.325.666l-.005-.006Z"/><path fill="#FFBE9D" d="M67.096 68.954c-.122-.06-4.981-1.693-5.019 3.326-.042 5.019 5.008 4.023 5.02 3.88.01-.144 0-7.212 0-7.212v.006Z"/><path fill="#EB996E" d="M65.58 74.249s-.09.059-.234.128a.9.9 0 0 1-.655.01c-.527-.197-.969-1.043-.985-1.948-.01-.457.09-.888.256-1.25.154-.367.394-.623.665-.665a.45.45 0 0 1 .516.244c.064.139.032.24.059.25.016.011.106-.085.07-.292a.556.556 0 0 0-.198-.314.663.663 0 0 0-.484-.133c-.389.021-.74.378-.92.771a2.96 2.96 0 0 0-.315 1.395c.027 1.011.532 1.964 1.256 2.177.351.095.65-.011.798-.128.155-.123.187-.234.165-.245h.006Z"/><path fill="#333" d="M92.35 55.44c-.597-1.468-1.714-2.666-2.938-3.672-2.64-2.166-5.93-3.576-9.34-3.768-3.407-.186-6.914.894-9.474 3.156-2.05 1.805-3.438 4.295-4.14 6.935-.703 2.64-.746 5.423-.373 8.132.165 1.187.436 2.427 1.23 3.321.494.564 1.367.953 1.979.522.362-.256.505-.708.628-1.134 1.118-3.832 2.235-7.951.969-11.735 1.005-1.214 2.171-2.331 3.581-3.034 1.41-.708 3.093-.963 4.583-.441 2.208.777 3.496 3.007 5.22 4.593 2.465 2.262 6.063 3.225 9.325 2.496l-1.25-5.365v-.005Z"/><path fill="#EB996E" d="M83.493 77.235c-.144.452-.293.91-.559 1.304-.266.394-.676.718-1.15.771-.505.059-1.01-.207-1.32-.612-.308-.399-.441-.92-.452-1.426-.01-.458.165-1.017.612-1.102.187-.037.378.027.559.085.814.272 1.634.538 2.448.81"/><path fill="#263238" d="M82.673 79.257c-.016-.074-.526.176-1.282-.074-.367-.123-.777-.378-1.022-.81a1.918 1.918 0 0 1-.133-1.559c.042-.133.117-.26.186-.372.09-.107.07-.101.176-.09.1.02.26.084.394.122.138.047.271.09.404.133.527.17 1 .324 1.4.441.798.24 1.304.362 1.325.304.021-.053-.452-.277-1.224-.591a64.24 64.24 0 0 0-1.368-.527c-.127-.048-.26-.096-.399-.149-.144-.048-.255-.101-.447-.149a.55.55 0 0 0-.351.032.653.653 0 0 0-.25.224 2.285 2.285 0 0 0-.24.468c-.24.67-.122 1.389.197 1.905.33.527.846.804 1.277.9.437.1.804.048 1.038-.027.234-.08.34-.165.33-.192l-.01.011Z"/><path fill="#455A64" d="M97.82 50.64s.027.112.054.34c0 .224.01.56-.107.975-.197.82-.862 2-2.214 2.772-1.346.793-3.32.91-5.253.325-1.964-.559-3.826-1.799-5.796-2.954-1.958-1.155-4.034-2.038-6.003-1.958-1.97.053-3.614.952-4.747 1.894a10.502 10.502 0 0 0-2.294 2.678c-.426.723-.596 1.16-.628 1.144-.01 0 .027-.117.106-.325.075-.213.218-.505.41-.883a10.01 10.01 0 0 1 2.257-2.79c1.139-.99 2.826-1.942 4.885-2.016 2.065-.101 4.205.814 6.18 1.974 1.985 1.166 3.82 2.395 5.715 2.949 1.874.58 3.763.484 5.056-.24 1.31-.713 1.975-1.825 2.204-2.608.24-.803.133-1.282.175-1.282v.005ZM63.35 61.087c-.032-.01.042-.543.383-1.336.33-.792.958-1.836 1.916-2.756a8.25 8.25 0 0 1 1.469-1.14c.49-.303.995-.5 1.453-.515.452-.022.808.117 1.01.26.208.144.272.272.256.282-.021.048-.426-.404-1.25-.314-.804.09-1.789.799-2.715 1.66a10.005 10.005 0 0 0-1.932 2.62c-.388.744-.543 1.25-.59 1.234v.005Zm.702 4.45c-.032-.011.085-.538.474-1.32.383-.777 1.07-1.788 2.054-2.683a9.251 9.251 0 0 1 2.88-1.772c.814-.303 1.351-.367 1.357-.335.016.053-.5.197-1.272.548-.772.346-1.794.937-2.752 1.799a10.884 10.884 0 0 0-2.07 2.555c-.426.734-.623 1.224-.676 1.208h.005Z"/><path fill="#FFBE9D" d="m100.972 138.035 26.701 10.75-4.258 7.627-30.277-4.641 7.834-13.736Z"/><path fill="#58126A" d="M101.025 106.953c.139 7.515-.106 25.605-.106 25.605l4.279 6.727-7.488 10.091-8.654 1.219-.862 6.711s-15.158 6.786-27.287 2.672c-9.436-3.199-20.469 7.562-20.469 7.562s-1.006-1.756.628-16.94c1.56-14.471 4.29-38.346 4.29-38.346l8.723-21.815 13.103-2.273c5.487 9.33 16.456 9.383 17.34 3.71l8.712 3.624c2.538 1.054 4.715 2.869 6.099 5.243.931 1.607 1.65 3.661 1.698 6.21h-.006Z"/><path fill="#fff" d="M93.473 109.242c.074.011-.847 8.627-2.055 19.245-1.213 10.623-2.256 19.223-2.33 19.218-.075-.011.845-8.622 2.054-19.245 1.213-10.617 2.256-19.223 2.33-19.213v-.005Zm-4.322 19.453c.043.063-4.236 2.889-9.558 6.312-5.323 3.422-9.67 6.141-9.708 6.077-.043-.063 4.236-2.889 9.559-6.312 5.322-3.422 9.665-6.141 9.707-6.077Z"/><path fill="#263238" d="M73.84 238.426h-5.035l-2.874-33.833h7.908v33.833Zm-39.198 0h-5.03l-2.874-33.833h7.904v33.833Zm94.803 0h-5.029l-2.874-33.833h7.903v33.833Z"/><path fill="#455A64" d="m48.442 174.449 4.795-73.35H8.005c-3.444 0-6.04 3.124-5.413 6.509l18.196 98.252c5.79-.08 111.313 0 111.313 0v-31.411H48.442Z"/><path fill="#263238" d="M115.544 195.051c0 .074-10.027.138-22.39.138-12.363 0-22.39-.064-22.39-.138 0-.075 10.021-.139 22.39-.139 12.368 0 22.39.064 22.39.139Z"/><path fill="#F3D7EC" d="m155.593 212.113 3.257 15.53s16.877 1.906 17.76 4.716l-29.884 7.392-6.067-23.987 14.934-3.651Z"/><path fill="#000" fill-opacity="0.8" d="M149.286 228.633c-.537.304-.777 1.049-.5 1.602.277.554 1.038.799 1.58.511.543-.292.857-1.181.522-1.697-.341-.517-1.245-.762-1.703-.346m-2.326 11.687-.59-2.326 28.782-6.929s1.474.25 1.554 1.224l-29.751 8.031h.005Z"/><path fill="#263238" d="M159.297 227.372c.032.149-.681.394-1.283 1.043-.617.633-.83 1.357-.979 1.331-.143 0-.138-.921.602-1.693.734-.777 1.66-.819 1.66-.681Zm3.454.522c.07.133-.5.537-.846 1.277-.362.729-.324 1.426-.473 1.458-.134.059-.442-.772 0-1.682.436-.915 1.277-1.186 1.314-1.048l.005-.005Zm2.709 3.31c-.122.064-.511-.617-.33-1.506.171-.894.783-1.379.873-1.272.112.101-.223.638-.356 1.373-.15.729-.043 1.357-.181 1.405h-.006Zm-7.302-7.286c-.026.149-.745.112-1.559.373-.814.244-1.389.681-1.496.574-.111-.085.384-.782 1.342-1.075.958-.298 1.756 0 1.713.128Z"/><path fill="#000" fill-opacity="0.8" d="m155.593 212.113 3.257 15.53s16.877 1.906 17.76 4.716l-29.751 8.031-6.2-24.62 14.934-3.651v-.006Z" opacity="0.3"/><path fill="#263238" d="m139.716 165.295 18.915 54.919-16.339 6.04-30.107-60.204-50.012-7.823 30.017-8.074 42.816 10.815a6.718 6.718 0 0 1 4.705 4.321l.005.006Z"/><path fill="#F3D7EC" d="m155.071 206.015 10.804 11.863s15.689-6.999 17.898-4.998l-22.252 21.773-17.589-17.797 11.144-10.847-.005.006Z"/><path fill="#000" fill-opacity="0.8" d="M158.051 223.647c-.314.537-.138 1.314.389 1.649.527.336 1.315.165 1.639-.367.325-.532.144-1.469-.42-1.745-.559-.277-1.475-.022-1.666.574m3.97 11.379-1.708-1.724 21.533-20.804s1.411-.538 1.985.271l-21.81 22.257Z"/><path fill="#58126A" d="M166.125 217.414c.101.112-.394.692-.585 1.565-.219.868-.032 1.607-.171 1.661-.122.074-.596-.73-.34-1.783.244-1.054 1.027-1.57 1.101-1.443h-.005Zm3.278-1.32c.128.08-.16.724-.08 1.549.059.825.447 1.411.336 1.512-.086.117-.783-.447-.863-1.469-.09-1.022.506-1.693.607-1.592Zm4.056 1.496c-.074.122-.761-.277-1.059-1.144-.309-.868-.027-1.602.106-1.56.149.032.133.671.389 1.379.245.713.66 1.203.564 1.32v.005Zm-10.097-2.608c.054.144-.596.479-1.165 1.123-.586.633-.862 1.304-1.011 1.267-.139-.016-.07-.878.617-1.623.681-.751 1.527-.905 1.559-.767Z"/><path fill="#263238" d="m56.793 181.368 43.609-.187 48.4 45.068 15.045-14.013s-41.097-46.377-45.844-51.162c-4.753-4.784-50.497-7.972-50.497-7.972l-27.5 11.948.624 3.119c1.538 7.696 8.313 13.231 16.163 13.193v.006Z"/><path fill="#455A64" d="M99.386 175.455c.074-.011.287 1.181.468 2.661.181 1.479.271 2.682.192 2.693-.075.01-.288-1.182-.469-2.661-.18-1.48-.271-2.683-.191-2.693Zm59.437 31.193s-.181.239-.542.633c-.362.394-.895.958-1.56 1.65a192.21 192.21 0 0 1-10.825 10.33 82.286 82.286 0 0 1-1.719 1.48c-.41.34-.644.527-.66.511-.011-.016.197-.224.585-.591.426-.399.985-.916 1.661-1.544a457.578 457.578 0 0 0 5.455-5.114 497.444 497.444 0 0 0 5.365-5.205c.654-.644 1.203-1.176 1.618-1.586.383-.373.606-.57.617-.559l.005-.005Z"/><path fill="#455A64" d="M132.787 211.336s.102.08.288.251l.83.755 3.193 2.938c2.773 2.571 6.786 6.286 11.773 10.9h-.133c4.274-3.992 9.378-8.755 15.03-14.035l-.011.171c-6.339-7.393-13.933-15.488-21.89-24.104-3.518-3.8-6.951-7.52-10.229-11.139-3.279-3.619-6.408-7.148-9.266-10.613-1.421-1.729-2.837-3.411-4.518-4.694a11.963 11.963 0 0 0-2.683-1.559c-.942-.399-1.916-.666-2.884-.884-1.943-.42-3.859-.665-5.684-.958-1.831-.282-3.588-.559-5.264-.819-6.7-1.049-12.124-1.9-15.881-2.486-1.868-.298-3.321-.532-4.317-.692-.484-.079-.862-.143-1.123-.186-.25-.042-.377-.074-.377-.074s.133.01.383.042l1.123.16c.995.149 2.453.362 4.321.639 3.763.569 9.192 1.389 15.898 2.4 1.676.255 3.438.521 5.268.803 1.831.293 3.742.527 5.706.948.979.218 1.969.489 2.927.894.963.399 1.889.931 2.736 1.586 1.713 1.298 3.14 2.996 4.566 4.721 2.858 3.454 5.993 6.972 9.271 10.591 3.279 3.619 6.711 7.328 10.229 11.134 7.957 8.611 15.546 16.716 21.88 24.13l.079.091-.085.079a20543.655 20543.655 0 0 1-15.067 13.992l-.069.064-.064-.064c-4.96-4.641-8.952-8.382-11.708-10.963-1.368-1.288-2.427-2.289-3.156-2.975-.352-.336-.623-.596-.815-.777-.181-.176-.271-.272-.271-.272l-.006.005Z"/><path fill="#FFBE9D" d="m94.516 146.497-13.157 4.433-24.226-9.851L44.2 153.102l34.551 6.2a7.516 7.516 0 0 0 3.486-.25l10.187-3.199s3.332 3.763 4.023 3.816c.692.053 2.097-.042 1.432-1.282S95.5 154.98 95.5 154.98s4.678 3.859 5.211 3.343c.532-.517.319-1.709-.511-2.683-.83-.974-3.582-4.13-3.582-4.13s5.764 4.774 6.312 4.051c.548-.724.819-1.869-1.49-4.083-1.517-1.452-3.854-3.528-5.083-4.614a1.883 1.883 0 0 0-1.847-.372l.005.005Z"/><path fill="#EB996E" d="M80.997 151.047c.053.054-.532.73-1.256 1.554-.724.825-1.314 1.496-1.373 1.448-.059-.043.436-.798 1.166-1.634.729-.835 1.41-1.426 1.463-1.373v.005Zm19.405 4.849c-.032.037-.484-.383-1.107-1.134-.633-.745-1.474-1.804-2.427-2.948-.968-1.097-1.783-2.347-2.837-2.14-.468.027-.83.181-1.059.32-.228.138-.335.244-.351.228-.01-.01.07-.143.293-.319a2.138 2.138 0 0 1 1.101-.426 2.27 2.27 0 0 1 .83.07c.144.031.299.111.437.207.123.101.256.202.373.314.479.452.942.99 1.426 1.565a88.688 88.688 0 0 1 2.363 3.001c.266.341.5.644.703.916.165.218.266.325.25.346h.005Zm-9.335-3.374s.08-.133.303-.277a2.015 2.015 0 0 1 1.091-.277c.245.005.5.037.783.154.276.128.505.352.697.602.197.25.362.532.543.798.18.261.404.538.612.82 1.713 2.251 2.985 4.178 2.868 4.247-.021.011-.096-.112-.25-.319-.197-.261-.415-.549-.66-.879a691.55 691.55 0 0 0-2.182-2.884c-.213-.288-.42-.548-.617-.836-.186-.282-.346-.559-.522-.798-.175-.24-.372-.437-.59-.548a2.054 2.054 0 0 0-.692-.165c-.916-.059-1.368.41-1.39.356l.006.006Zm10.703-.714c-.027.027-.431-.298-1.07-.846-.633-.548-1.5-1.32-2.443-2.182-.463-.431-.91-.841-1.325-1.224-.4-.394-.761-.702-1.134-.873-.75-.346-1.288-.143-1.288-.186-.01-.016.112-.091.352-.128.24-.037.601-.026 1.01.133.203.08.41.197.624.346.207.155.399.33.606.516.42.378.868.788 1.341 1.209.948.862 1.789 1.66 2.395 2.246.602.585.964.963.937.989h-.005Z"/><path fill="#58126A" d="M42.976 153.432s-4.917-5.519-4.608-12.885c.308-7.366 2.421-28.686 3.363-34.541.931-5.785 5.338-13.832 12.347-15.572 5.126-1.272 6.185 14.231 6.185 14.231l-3.87 34.227 7.718 4.481-7.201 12.198-13.934-2.145v.006Z"/><path fill="#fff" d="M59.598 102.962c-.054.005-.117-.75-.442-1.916a13.349 13.349 0 0 0-.735-1.985 14.555 14.555 0 0 0-1.309-2.236 14.855 14.855 0 0 0-1.714-1.942 13.766 13.766 0 0 0-1.66-1.32c-1.006-.67-1.703-.969-1.682-1.017.006-.016.186.048.5.181.16.064.352.15.565.267.212.117.468.234.718.404a11.81 11.81 0 0 1 1.724 1.293 13.748 13.748 0 0 1 1.767 1.97c.549.766.98 1.548 1.315 2.293.325.746.553 1.443.692 2.044.085.298.117.575.16.814.047.24.063.447.074.618.027.34.032.532.01.532h.017Zm-3.22 35.956c.016.037-.464.282-1.22.713a27.888 27.888 0 0 0-2.841 1.842 30.434 30.434 0 0 0-2.587 2.187c-.633.596-1.016.979-1.043.948-.027-.022.303-.453.905-1.086a20.21 20.21 0 0 1 2.56-2.267 19.02 19.02 0 0 1 2.916-1.789c.788-.388 1.299-.569 1.31-.537v-.011Z"/><path fill="#E0E0E0" d="m107.47 131.116-8.462 30.741h39.527l9.628-29.288a1.78 1.78 0 0 0-1.671-2.336l-37.287-.426a1.773 1.773 0 0 0-1.735 1.309Z"/><path fill="#263238" d="M110.029 129.817c.075.022-1.841 7.212-4.284 16.057-2.438 8.851-4.476 16.004-4.551 15.983-.074-.022 1.842-7.207 4.285-16.057 2.437-8.846 4.476-16.004 4.55-15.983Z"/><path fill="#fff" d="M125.309 145.358c-.457.942-.159 2.028.666 2.427.819.399 1.857-.043 2.315-.99.458-.942.16-2.028-.665-2.427-.82-.399-1.858.043-2.316.99Z"/><path fill="#E0E0E0" d="M99.008 161.857H72.557a2.26 2.26 0 0 1 2.261-2.262h25.169l-.98 2.262Z"/><path fill="#263238" d="M38.367 140.547s.01.085.016.25c0 .176.01.421.016.729-.005.32.037.713.08 1.176.027.469.133.996.229 1.586.24 1.182.639 2.608 1.33 4.173a20.86 20.86 0 0 0 3.018 4.907l-.064-.032c3.97.601 8.723 1.325 13.939 2.118l-.133.064c1.75-2.97 3.645-6.184 5.61-9.511.532-.904 1.064-1.804 1.585-2.687l.048.191a5294.101 5294.101 0 0 1-7.711-4.486l-.075-.043v-.085c.713-7.834 1.325-14.572 1.756-19.367.224-2.379.405-4.274.527-5.594.064-.638.117-1.139.155-1.49.016-.16.031-.287.042-.383.01-.085.021-.128.021-.128v.133c-.005.101-.01.224-.02.389l-.113 1.495-.452 5.599c-.41 4.801-.985 11.539-1.65 19.378l-.064-.128c2.432 1.411 5.024 2.917 7.717 4.476l.123.069-.07.123c-.521.889-1.053 1.783-1.586 2.687-1.963 3.327-3.863 6.536-5.62 9.506l-.048.08-.09-.016c-5.21-.815-9.958-1.554-13.928-2.172h-.043l-.02-.032c-2.736-3.379-3.87-6.823-4.306-9.196-.091-.602-.187-1.134-.203-1.602-.032-.469-.069-.863-.053-1.182.005-.309.01-.548.016-.729 0-.165.01-.25.016-.25l.005-.016Z"/><path fill="#455A64" d="M18.57 150.153s46.744 5.919 48.415 7.558c1.463 1.442 3.337 39.405 3.752 39.224L27.11 195.28l-8.542-45.127Z"/><path fill="#263238" d="M57.134 205.743c-.075.005-1.049-10.942-2.172-24.455-1.123-13.518-1.974-24.477-1.9-24.482.075-.005 1.049 10.942 2.172 24.46 1.123 13.513 1.974 24.472 1.9 24.482v-.005ZM9.378 101.099s.021.059.053.181c.032.133.075.314.133.538l.474 2.075c.404 1.826.985 4.434 1.698 7.654 1.41 6.482 3.358 15.407 5.503 25.269l1.554 7.206c.25 1.166.495 2.31.74 3.428.058.282.122.559.18.835.064.282.107.554.213.793.203.495.57.905 1.017 1.171.223.133.468.229.718.288.245.053.522.079.783.117l1.565.207c1.027.133 2.027.266 2.99.394 1.927.256 3.726.495 5.365.708 3.268.442 5.918.798 7.77 1.048.905.128 1.613.229 2.113.298.23.038.41.064.549.086.122.021.186.031.186.037 0 0-.064 0-.192-.011-.138-.016-.32-.032-.553-.058-.5-.059-1.214-.144-2.119-.245l-7.78-.958c-1.645-.208-3.444-.431-5.37-.676-.964-.123-1.964-.25-2.991-.378-.517-.064-1.038-.133-1.565-.197-.266-.037-.527-.058-.81-.117a2.745 2.745 0 0 1-1.92-1.602c-.117-.277-.165-.564-.224-.836-.058-.276-.122-.553-.18-.835-.246-1.118-.49-2.262-.746-3.428a3878.81 3878.81 0 0 1-1.56-7.206c-2.118-9.867-4.034-18.803-5.423-25.291-.68-3.225-1.23-5.843-1.612-7.669-.181-.894-.325-1.596-.426-2.091-.043-.229-.08-.41-.101-.543a.99.99 0 0 1-.027-.186l-.005-.006Zm58.309 59.629c.075-.005.969 10.091 1.99 22.555 1.023 12.465 1.794 22.572 1.714 22.577-.074.005-.968-10.091-1.99-22.555-1.022-12.459-1.793-22.571-1.714-22.577Z"/><path fill="#fff" d="M230.107 15.589H121.706v94.92h108.401v-94.92Z"/><path fill="#E6B0D9" fill-opacity="0.5" d="M230.108 59.145H121.973v51.369h108.135v-51.37Z"/><path fill="#263238" d="M210.006 47.191c0 .075-14.833.139-33.13.139-18.298 0-33.136-.064-33.136-.139 0-.074 14.833-.138 33.136-.138 18.303 0 33.13.064 33.13.138ZM229.48 25.86c0 .075-24.009.139-53.621.139-29.612 0-53.626-.064-53.626-.139 0-.074 24.003-.138 53.626-.138 29.623 0 53.621.064 53.621.138Z"/><path fill="#58126A" d="M127.576 22.177a1.645 1.645 0 1 0 0-3.29 1.645 1.645 0 0 0 0 3.29Zm5.503 0a1.645 1.645 0 1 0 0-3.29 1.645 1.645 0 0 0 0 3.29Zm7.149-1.644c0 .91-.735 1.644-1.645 1.644s-1.645-.734-1.645-1.644c0-.91.735-1.645 1.645-1.645s1.645.735 1.645 1.645Zm2.071 29.424a4.326 4.326 0 1 0-6.118-6.12 4.326 4.326 0 0 0 6.118 6.12Z"/><path fill="#fff" d="M139.966 44.727v4.189h-.968v-3.412h-.836v-.777h1.81-.006Z"/><path fill="#58126A" d="M182.815 47.042c-.037 0 0-.564-.25-1.522a6.305 6.305 0 0 0-2.299-3.406c-.702-.521-1.591-.969-2.608-1.144-1.011-.17-2.155-.139-3.241.276a5.835 5.835 0 0 0-1.559.841 5.84 5.84 0 0 0-1.304 1.31c-.756 1.01-1.187 2.304-1.198 3.64.011 1.336.437 2.635 1.198 3.64a5.75 5.75 0 0 0 1.304 1.31 5.84 5.84 0 0 0 1.559.84c1.086.416 2.23.448 3.241.277 1.022-.175 1.906-.623 2.608-1.144a6.269 6.269 0 0 0 2.299-3.406c.245-.964.213-1.528.25-1.522.011 0 .011.138.006.404 0 .133 0 .298-.038.49-.026.191-.047.415-.117.66a6.29 6.29 0 0 1-2.283 3.534c-.718.548-1.628 1.022-2.687 1.213-1.049.186-2.236.16-3.375-.266a6.166 6.166 0 0 1-1.628-.867 6.016 6.016 0 0 1-1.363-1.363c-.793-1.054-1.245-2.406-1.256-3.805.011-1.395.463-2.752 1.256-3.8a6.014 6.014 0 0 1 1.363-1.363 5.867 5.867 0 0 1 1.628-.867c1.134-.426 2.321-.453 3.375-.266a6.368 6.368 0 0 1 2.687 1.213 6.291 6.291 0 0 1 2.283 3.534c.07.245.091.468.117.66.032.191.038.356.038.49 0 .266 0 .404-.006.404v.005Z"/><path fill="#263238" d="M218.649 46.899c-.032 0-.01-.383-.186-1.044a4.3 4.3 0 0 0-3.364-3.097c-.692-.117-1.469-.09-2.208.192a4.137 4.137 0 0 0-1.943 1.468c-.516.687-.804 1.57-.814 2.475.01.91.298 1.789.814 2.475a4.162 4.162 0 0 0 1.943 1.469c.739.282 1.516.309 2.208.192a4.19 4.19 0 0 0 1.783-.777 4.281 4.281 0 0 0 1.581-2.32c.176-.66.154-1.044.186-1.044.011 0 .016.096.016.277 0 .18-.021.452-.096.793a4.291 4.291 0 0 1-1.564 2.448 4.397 4.397 0 0 1-1.858.846c-.729.133-1.549.117-2.336-.18a4.391 4.391 0 0 1-2.076-1.55c-.553-.729-.862-1.67-.873-2.64.011-.968.32-1.91.873-2.64a4.379 4.379 0 0 1 2.076-1.542c.787-.293 1.612-.31 2.336-.181a4.398 4.398 0 0 1 1.858.846 4.29 4.29 0 0 1 1.564 2.448c.075.34.101.612.096.793 0 .18 0 .277-.016.277v.016Z"/><path fill="#58126A" d="M185.008 46.718h-42.034v.76h42.034v-.76Z"/><path fill="#58126A" d="M180.779 47.59a4.327 4.327 0 1 0-8.54-1.39 4.327 4.327 0 0 0 8.54 1.39Z"/><path fill="#fff" d="M178.147 48.128v.788h-3.166v-.628l1.618-1.528c.372-.351.436-.57.436-.771 0-.33-.229-.522-.671-.522-.356 0-.665.138-.867.42l-.708-.452c.325-.474.91-.777 1.666-.777.931 0 1.554.479 1.554 1.24 0 .404-.112.777-.703 1.325l-.963.91h1.799l.005-.005Z"/><path fill="#263238" d="M215.966 47.638c0 .708-.542 1.352-1.735 1.352-.585 0-1.192-.16-1.596-.447l.378-.74c.319.24.761.378 1.197.378.484 0 .782-.197.782-.537 0-.32-.234-.517-.782-.517h-.442v-.638l.863-.974h-1.783v-.777h2.932v.628l-.947 1.075c.756.122 1.139.585 1.139 1.203l-.006-.006ZM202.677 33.28c0 .074-10.527.138-23.508.138-12.98 0-23.513-.064-23.513-.139 0-.074 10.522-.138 23.513-.138 12.992 0 23.508.064 23.508.138Z"/><path fill="#EBEBEB" d="m173.624 59.762 3.252-4.412 3.246 4.412h-6.498Z"/><path fill="#263238" d="M230.102 110.514c0-.984-.048-37.808-.117-94.92l.117.117c-31.166.005-68.432.016-108.39.021h-.011l.138-.138c-.005 34.487-.01 66.968-.016 94.92l-.122-.122c64.664.074 107.337.122 108.401.122-1.059 0-43.737.048-108.401.123h-.123v-.123c0-27.952-.01-60.433-.016-94.92v-.138h.15c39.958.005 77.224.015 108.39.02h.117v.118c-.069 57.112-.117 93.936-.117 94.92Z"/><path fill="#58126A" d="M148.722 70.236c0 .075-3.306.138-7.388.138s-7.387-.063-7.387-.138c0-.074 3.305-.138 7.387-.138 4.082 0 7.388.064 7.388.138Z"/><path fill="#FAFAFA" d="M163.89 82.163h-27.92a3.782 3.782 0 0 1-3.784-3.784 3.782 3.782 0 0 1 3.784-3.784h27.92a3.782 3.782 0 0 1 3.784 3.784 3.782 3.782 0 0 1-3.784 3.784Z"/><path fill="#58126A" d="M200.389 70.236c0 .075-3.135.138-6.999.138s-6.998-.063-6.998-.138c0-.074 3.134-.138 6.998-.138 3.864 0 6.999.064 6.999.138ZM148.333 90.87c0 .075-3.135.138-6.998.138-3.864 0-6.999-.063-6.999-.138 0-.074 3.135-.138 6.999-.138 3.863 0 6.998.064 6.998.138Z"/><path fill="#FAFAFA" d="M214.599 82.163h-27.92a3.782 3.782 0 0 1-3.784-3.784 3.782 3.782 0 0 1 3.784-3.784h27.92a3.782 3.782 0 0 1 3.784 3.784 3.782 3.782 0 0 1-3.784 3.784Zm1.032 20.948h-79.459a3.781 3.781 0 0 1-3.784-3.784 3.782 3.782 0 0 1 3.784-3.784h79.459a3.782 3.782 0 0 1 3.784 3.784 3.781 3.781 0 0 1-3.784 3.784Z"/><path fill="#58126A" d="M235.042 22.242a7.866 7.866 0 1 0-11.124-11.124 7.866 7.866 0 0 0 11.124 11.124Z"/><path fill="#fff" d="m232.715 14.49-1.114-1.115-4.998 4.998 1.114 1.114 4.998-4.998Z"/><path fill="#fff" d="m227.731 13.37-1.114 1.114 4.998 4.998 1.114-1.114-4.998-4.998Z"/></g><defs><clipPath id="a"><path fill="#fff" d="M0 0h243.317v240.39H0z"/></clipPath></defs></svg>