<svg xmlns="http://www.w3.org/2000/svg" width="300" height="224" fill="none" viewBox="0 0 300 224"><g clip-path="url(#a)"><path fill="#EBEBEB" d="M269.94 206.124h-19.872v.15h19.872v-.15Zm-71.208 1.632h-5.214v.15h5.214v-.15Zm50.736-7.2h-11.514v.15h11.514v-.15ZM57.39 201.564H31.476v.15H57.39v-.15Zm9.144 0h-3.798v.15h3.798v-.15Zm68.556 2.532H78.882v.15h56.208v-.15Zm7.95-34.386H27.18a3.429 3.429 0 0 1-3.426-3.426V3.426A3.429 3.429 0 0 1 27.18 0h115.86a3.429 3.429 0 0 1 3.426 3.426v162.858a3.429 3.429 0 0 1-3.426 3.426ZM27.18.15a3.28 3.28 0 0 0-3.276 3.276v162.858a3.28 3.28 0 0 0 3.276 3.276h115.86a3.28 3.28 0 0 0 3.276-3.276V3.426A3.28 3.28 0 0 0 143.04.15H27.18Zm245.64 169.56H156.96a3.429 3.429 0 0 1-3.426-3.426V3.426A3.429 3.429 0 0 1 156.96 0h115.86a3.429 3.429 0 0 1 3.426 3.426v162.858a3.429 3.429 0 0 1-3.426 3.426ZM156.96.15a3.28 3.28 0 0 0-3.276 3.276v162.858a3.28 3.28 0 0 0 3.276 3.276h115.86a3.28 3.28 0 0 0 3.276-3.276V3.426A3.28 3.28 0 0 0 272.82.15H156.96ZM300 196.47H0v.15h300v-.15Z"/><path fill="#F5F5F5" d="M210.041 192.99h57.108V117h-57.108v75.99Z"/><path fill="#E6E6E6" d="M199.145 192.99h10.896V117h-10.896v75.99Z"/><path fill="#FAFAFA" d="M213.749 141.09h49.398v-18.456h-49.398v18.456Z"/><path fill="#EBEBEB" d="m244.89 122.634-.216 2.46a1.573 1.573 0 0 1-1.566 1.434h-9.324a1.573 1.573 0 0 1-1.566-1.434l-.216-2.46h12.888Z"/><path fill="#FAFAFA" d="M213.749 161.556h49.398V143.1h-49.398v18.456Z"/><path fill="#EBEBEB" d="m244.89 143.106-.216 2.46a1.573 1.573 0 0 1-1.566 1.434h-9.324a1.573 1.573 0 0 1-1.566-1.434l-.216-2.46h12.888Z"/><path fill="#FAFAFA" d="M213.749 182.028h49.398v-18.456h-49.398v18.456Z"/><path fill="#EBEBEB" d="m244.89 163.572-.216 2.46a1.573 1.573 0 0 1-1.566 1.434h-9.324a1.573 1.573 0 0 1-1.566-1.434l-.216-2.46h12.888Z"/><path fill="#E6E6E6" d="M213.749 196.776h48.798l.6-3.798h-49.398v3.798Z"/><path fill="#E0E0E0" d="M203.549 196.776h10.2v-3.798h-10.8l.6 3.798Z"/><path fill="#FAFAFA" d="M236.687 117.078h19.5l-2.16-24.726h-19.5l2.16 24.726Z"/><path fill="#EBEBEB" d="M236.688 117.078h-.93l-2.166-24.726h.936l2.16 24.726Z"/><path fill="#F0F0F0" d="M238.457 114.558h15.522l-1.722-19.686h-15.522l1.722 19.686Z"/><path fill="#E6E6E6" d="M239.591 112.938h12.966l-1.434-16.446h-12.972l1.44 16.446Z"/><path fill="#F0F0F0" d="m231.21 117.078 1.338-15.306h-19.41l-1.338 15.306h19.41Z"/><path fill="#E0E0E0" d="m231.21 117.078 1.338-15.306h1.044l-1.338 15.306h-1.044Z"/><path fill="#EBEBEB" d="m229.368 115.518 1.068-12.186H214.98l-1.068 12.186h15.456Z"/><path fill="#F5F5F5" d="m228.179 114.516.894-10.182h-12.912l-.888 10.182h12.906Z"/><path fill="#EBEBEB" d="M186.383 186.492c0 4.056-.636 6.678-1.71 8.364-.804 1.266-2.256 1.98-3.756 1.98h-5.874c-1.5 0-2.946-.714-3.756-1.98-1.074-1.686-1.71-4.308-1.71-8.364 0-5.886 2.562-10.59 3.402-14.352.3-1.356-.702-5.502-.702-5.502h11.4s-1.002 4.152-.702 5.502c.84 3.762 3.402 8.472 3.402 14.352h.006Z"/><path fill="#F5F5F5" d="M205.8 162.678c0-5.106-8.01-2.988-10.026-10.914-.762-3 5.748-9.798 5.748-9.798h-20.31s6.516 6.798 5.748 9.798c-2.016 7.926-10.026 5.802-10.026 10.914 0 5.628 11.298 17.34 11.838 30.528.048 1.176-2.124 3.624-2.124 3.624h9.432s-2.172-2.442-2.124-3.624c.546-13.188 11.838-24.906 11.838-30.528h.006Z"/><path fill="#F0F0F0" d="M199.661 175.956c1.182-2.484-1.259-10.926-1.259-10.926h8.801s-2.442 8.442-1.26 10.926c.834 1.752 2.73 2.874 2.73 4.944v12.462c0 3.228-2.64 3.468-5.868 3.468s-5.867-.24-5.867-3.468V180.9c0-2.076 1.895-3.192 2.729-4.944h-.006Z"/><path fill="#FBF1F8" d="M99.09 102.348c-5.058-2.19-7.938-6.81-6.432-10.302 1.512-3.492 6.852-4.548 11.91-2.358s7.944 6.81 6.432 10.302c-1.512 3.492-6.852 4.548-11.91 2.358Zm4.026-9.294c-2.37-1.026-4.872-.528-5.58 1.104-.708 1.638.642 3.798 3.012 4.824 2.37 1.026 4.872.528 5.58-1.104.708-1.638-.642-3.798-3.012-4.824Z"/><path fill="#FBF1F8" d="m105.042 93.246-2.4-1.038 14.52-33.564a1.313 1.313 0 0 1 1.722-.684c.666.288.966 1.056.684 1.722l-14.52 33.564h-.006Z"/><path fill="#FBF1F8" d="m120.672 62.928-4.614-2.016 1.044-2.4 4.608 2.01-1.038 2.406Zm-2.274 2.688-3.3-1.434 1.038-2.406 3.3 1.434-1.038 2.406Zm-3.605.744-1.039 2.4 3.7 1.602 1.039-2.4-3.7-1.602Zm-8.821 23.304-1.32-.57a1.297 1.297 0 0 1-.678-1.704v-.018a1.312 1.312 0 0 1 1.716-.678l1.32.57c.66.282.96 1.05.678 1.704v.018c-.294.66-1.056.96-1.716.678Zm103.109-11.538c4.008 2.67 5.04 8.184 2.304 12.288-2.736 4.104-8.22 5.274-12.228 2.61-4.008-2.67-5.04-8.184-2.304-12.288 2.736-4.104 8.22-5.274 12.228-2.604v-.006Zm-7.29 10.938c1.878 1.248 4.446.702 5.73-1.224 1.284-1.926.798-4.506-1.08-5.76-1.878-1.248-4.446-.702-5.73 1.224-1.284 1.926-.798 4.506 1.08 5.76Z"/><path fill="#FBF1F8" d="m200.825 87.996 2.484 1.656-17.766 27.192a1.496 1.496 0 0 1-2.07.414 1.495 1.495 0 0 1-.414-2.07l17.766-27.192Z"/><path fill="#FBF1F8" d="m183.167 109.26 5.226 3.51-2.61 3.918-5.238-3.516a1.641 1.641 0 0 1-.45-2.274l.786-1.182a1.65 1.65 0 0 1 2.286-.456Zm-46.643-83.1-2.76 7.146a1.245 1.245 0 0 1-1.614.714 1.245 1.245 0 0 1-.714-1.614l2.76-7.146a4.498 4.498 0 0 0-2.568-5.802l-2.556-.984a4.498 4.498 0 0 0-5.802 2.568l-1.128 2.916-2.334-.9 1.128-2.916c1.386-3.594 5.442-5.388 9.03-4.002l2.556.984c3.594 1.386 5.388 5.442 4.002 9.036Z"/><path fill="#FBF1F8" d="M136.086 27.288a1.722 1.722 0 0 0-.732-.546l-13.92-5.376a1.7 1.7 0 0 0-.942-.084 1.694 1.694 0 0 0-1.266 1.062l-5.376 13.92a1.704 1.704 0 0 0 .978 2.208l13.92 5.376a1.704 1.704 0 0 0 2.208-.978l5.376-13.92a1.697 1.697 0 0 0-.246-1.662Zm-10.572 10.758-4.416-1.704 2.334-4.074a2.452 2.452 0 0 1 3.078-3.372 2.449 2.449 0 0 1 1.404 3.168 2.428 2.428 0 0 1-1.392 1.392l-1.008 4.59Z"/><path fill="#E6E6E6" d="M41.49 188.706h111.077v-59.778H41.489v59.778Zm102.173 7.752h6.984v-5.274h-6.984v5.274Zm-110.651 0h6.984v-71.982h-6.984v71.982Z"/><path fill="#F0F0F0" d="M39.912 124.476v71.982h3.726v-4.032h107.01v4.032h3.726v-71.982H39.912Zm3.726 6.516H95.28v25.002H43.638v-25.002Zm107.01 54.918H99.006v-54.918h51.642v54.918Zm-107.01 0v-26.196H95.28v26.196H43.638Z"/><path fill="#F5F5F5" d="M99 185.91h48.155v-52.23H98.999v52.23Z"/><path fill="#FAFAFA" d="M101.184 158.232a2.238 2.238 0 1 0 4.476 0 2.238 2.238 0 0 0-4.476 0Z"/><path fill="#E0E0E0" d="M103.422 160.47c.9 0 1.674-.54 2.028-1.308.132.282.21.6.21.93a2.238 2.238 0 0 1-4.476 0c0-.336.078-.648.21-.93a2.238 2.238 0 0 0 2.028 1.308Z"/><path fill="#FAFAFA" d="M128.484 185.91h-11.49l-5.49-52.23h11.49l5.49 52.23Zm-14.431 0h-2.292l-5.484-52.23h2.286l5.49 52.23Zm-30.408-29.94h4.548v-22.338h-4.548v22.338Z"/><path fill="#F5F5F5" d="M64.775 155.97h4.548v-22.338h-4.548v22.338Zm14.317 0h4.548v-20.772h-4.548v20.772Z"/><path fill="#FAFAFA" d="M69.324 155.97h4.548v-20.772h-4.548v20.772Z"/><path fill="#EBEBEB" d="M73.877 155.97h2.94v-22.338h-2.94v22.338Z"/><path fill="#FAFAFA" d="M76.812 155.97h2.274v-20.772h-2.274v20.772Z"/><path fill="#EBEBEB" d="M60.227 155.97h4.548v-22.338h-4.548v22.338Z"/><path fill="#E6E6E6" d="M55.674 155.97h4.548v-20.772h-4.548v20.772Zm-9.768 0h4.548v-20.772h-4.548v20.772Z"/><path fill="#FAFAFA" d="M50.46 155.97h2.94v-22.338h-2.94v22.338Z"/><path fill="#EBEBEB" d="M53.4 155.97h2.274v-20.772H53.4v20.772Zm-9.769-.006h2.274v-21.81h-2.274v21.81Zm4.549 7.608h-4.548v22.338h4.548v-22.338Z"/><path fill="#FAFAFA" d="M67.044 163.572h-4.548v22.338h4.548v-22.338Zm-14.316 1.566H48.18v20.772h4.548v-20.772Z"/><path fill="#EBEBEB" d="M62.495 165.138h-4.548v20.772h4.548v-20.772Z"/><path fill="#FAFAFA" d="M57.948 163.572h-2.94v22.338h2.94v-22.338Z"/><path fill="#F5F5F5" d="M55.007 165.138h-2.274v20.772h2.274v-20.772Z"/><path fill="#EBEBEB" d="M71.598 163.572H67.05v22.338h4.548v-22.338Z"/><path fill="#F5F5F5" d="M76.146 165.138h-4.548v20.772h4.548v-20.772Z"/><path fill="#E6E6E6" d="M85.913 165.138h-4.548v20.772h4.548v-20.772Z"/><path fill="#FAFAFA" d="M81.366 163.572h-2.94v22.338h2.94v-22.338Zm9.767 0h-2.94v22.338h2.94v-22.338Z"/><path fill="#EBEBEB" d="M78.425 165.138h-2.274v20.772h2.274v-20.772Zm9.763-1.038h-2.274v21.81h2.274V164.1Z"/><path fill="#58126A" d="M48.707 86.004s-.762.354-1.11 1.062c-.348.708.732 2.022.732 2.022s.912.636 1.812.222l.906-.408s-1.542-2.682-2.292-2.706l-.042-.186-.006-.006Z"/><path fill="#58126A" d="M52.578 85.98c.108 1.272-.678 2.874-1.812 2.976-1.134.096-2.19-1.344-2.298-2.616-.108-1.272.804-1.398 1.944-1.494 1.134-.096 2.058-.132 2.172 1.14l-.006-.006Z"/><path fill="#58126A" d="M49.248 85.608s.87.69 2.658.288c0 0-2.82 1.878-2.658-.288Zm.768-.252s1.002-.174 1.014.246c0 0 .846-.048.732-.402-.12-.354-1.746.162-1.746.162v-.006Z"/><path fill="#FBF1F8" d="M49.248 85.608s.87.69 2.658.288c0 0-2.82 1.878-2.658-.288Zm.768-.252s1.002-.174 1.014.246c0 0 .846-.048.732-.402-.12-.354-1.746.162-1.746.162v-.006Z" opacity="0.2"/><path fill="#58126A" d="M48.857 89.358c.36.588 1.098.888 1.782.804.684-.084 1.296-.51 1.692-1.074.396-.564.582-1.254.624-1.938.012-.18.024-.624-.21-.69-.216-.06-.348.24-.444.378-.288.402-.588.78-.954 1.116a6.205 6.205 0 0 1-1.164.846c-.12.066-1.26.66-1.326.558Z"/><path fill="#58126A" d="M53.73 86.82c.215.516.137 1.14-.199 1.59-.222.294-.534.504-.846.69-.216.132-.498.258-.714.12-.234-.15-.21-.486-.156-.762.084-.414.174-.828.276-1.242.084-.336.138-.9.336-1.188.186-.27.45-.108.732.084.252.174.456.42.576.702l-.006.006Z"/><path fill="#FBF1F8" d="M49.145 88.65a1.175 1.175 0 0 1-1.014-.726c-.12-.3-.114-1.068.276-1.17.174.684.324 1.302.738 1.89v.006Zm2.959-.03a1.32 1.32 0 0 0 .882-.87c.072-.228-.018-1.392-.366-.9-.114.162-.09.672-.15.876-.09.312-.21.612-.372.894h.006Zm-1.584.72c.317.27.833.288 1.163.03-.042.222-.75.414-.972.48-.57.168-.87-.084-1.428-.318 0 0 .876.132 1.23-.192h.006Z" opacity="0.2"/><path fill="#FBF1F8" d="m49.53 112.71.053-17.31.888-5.268.336.06-.882 5.238-.066 17.61-.33-.33Z"/><path fill="#FBF1F8" d="m49.889 95.31-.27.21c-.27-.354-.516-.816-.798-1.35-.438-.828-.936-1.764-1.692-2.592l.252-.228c.786.864 1.29 1.818 1.74 2.664.276.522.516.972.768 1.302v-.006Z"/><path fill="#58126A" d="M50.1 92.988c.462-.12.875-.414 1.14-.81.3-.45.407-.996.503-1.53-.6.18-1.242-.114-1.86-.042-.492.054-.954.36-1.206.786-.324.558-.456 1.188-.167 1.446.233.21.971.312 1.59.15Zm-2.305-1.194a2.263 2.263 0 0 1-1.884.234c-.624-.204-.804-1.134-1.044-1.746.564-.114 1.992-.036 2.316 0 .324.03.654.18.828.456.174.276.144.69-.12.876-.018-.012-.096.18-.096.18Z"/><path fill="#58126A" d="M44.957 92.802c.378-.462 1.314-.792 1.902-.684.588.108 1.086.51 1.296.99-.156.372-.57.582-.972.612-.402.03-.798-.09-1.182-.21-.384-.12-.78-.234-1.182-.21l.144-.498h-.006Zm11.551-2.976s.624.558.75 1.344c.126.78-1.296 1.716-1.296 1.716s-1.056.336-1.8-.318l-.744-.66s2.262-2.106 2.988-1.914l.096-.168h.006Z"/><path fill="#58126A" d="M52.812 88.668c-.48 1.182-.198 2.946.858 3.378 1.056.432 2.484-.642 2.964-1.824s-.36-1.572-1.416-1.998c-1.056-.426-1.932-.732-2.406.45v-.006Z"/><path fill="#58126A" d="M56.106 89.292s-1.032.408-2.622-.504c0 0 2.142 2.628 2.622.504Zm-.66-.468s-.906-.462-1.044-.066c0 0-.798-.294-.582-.6.216-.306 1.62.666 1.62.666h.006Z"/><path fill="#FBF1F8" d="M56.106 89.292s-1.032.408-2.622-.504c0 0 2.142 2.628 2.622.504Zm-.66-.468s-.906-.462-1.044-.066c0 0-.798-.294-.582-.6.216-.306 1.62.666 1.62.666h.006Z" opacity="0.2"/><path fill="#58126A" d="M55.374 92.988c-.516.456-1.308.522-1.938.246-.63-.276-1.092-.87-1.302-1.524-.21-.654-.186-1.368-.03-2.04.042-.174.156-.6.402-.6.222 0 .264.33.318.492.156.468.336.918.582 1.35.24.414.534.804.864 1.152.09.096 1.014 1.002 1.104.924Z"/><path fill="#58126A" d="M51.468 89.13a1.647 1.647 0 0 0-.276 1.578c.126.348.36.636.606.912.168.192.402.39.648.324.264-.072.342-.408.372-.678.042-.42.078-.846.096-1.266.018-.348.132-.9.03-1.236-.096-.312-.396-.24-.72-.132a1.622 1.622 0 0 0-.756.504v-.006Z"/><path fill="#FBF1F8" d="M55.309 92.232c.426.114.906-.048 1.182-.396.204-.252.426-.99.078-1.194-.366.6-.69 1.146-1.26 1.59Zm-2.82-.9a1.31 1.31 0 0 1-.588-1.092c0-.24.425-1.32.611-.756.06.186-.108.666-.114.882-.006.324.024.648.09.966Zm1.301 1.152a.952.952 0 0 1-1.122-.312c-.024.228.6.618.786.744.498.33.858.174 1.458.12 0 0-.882-.132-1.122-.546v-.006Z" opacity="0.2"/><path fill="#FBF1F8" d="m49.038 110.124.216-.708.288-.954.336-1.116 2.694-8.862.336-2.544.3-2.256.06-.468.168.018v.006l.174.018-.006.042-.06.444-.318 2.412-.264 1.962-.054.432-.024.072-3.006 9.9-.342 1.11-.156.516-.21.702-.132-.726Z"/><path fill="#FBF1F8" d="m52.638 98.376.198.276c.366-.258.732-.63 1.164-1.056.66-.66 1.41-1.41 2.376-1.98l-.174-.294c-1.002.594-1.77 1.362-2.442 2.034-.42.42-.78.78-1.116 1.02h-.006Z"/><path fill="#58126A" d="M53.124 96.096a2.019 2.019 0 0 1-.852-1.11c-.156-.516-.096-1.074-.036-1.608.516.348 1.218.258 1.788.51.456.198.804.624.918 1.104.144.63.084 1.272-.264 1.428-.288.132-1.02.012-1.56-.324h.006Zm2.55-.462c.426.498 1.08.792 1.728.78.654-.012 1.104-.852 1.512-1.362-.504-.276-1.896-.618-2.214-.684-.318-.066-.678-.024-.924.192-.246.21-.336.618-.144.876.018-.006.042.198.042.198Z"/><path fill="#58126A" d="M58.092 97.434c-.228-.552-1.026-1.146-1.614-1.212-.594-.072-1.188.168-1.53.564.036.402.372.726.75.87.378.144.792.15 1.194.15.402 0 .816 0 1.194.15l.012-.522h-.006Zm-13.74-8.298s-.69.486-.906 1.242c-.216.762 1.086 1.86 1.086 1.86s1.008.462 1.824-.108l.816-.564s-2.004-2.358-2.742-2.25l-.078-.18Z"/><path fill="#58126A" d="M48.156 88.422c.336 1.23-.15 2.952-1.248 3.252-1.098.3-2.394-.93-2.73-2.16-.336-1.23.54-1.518 1.644-1.818 1.104-.3 2.004-.504 2.34.732l-.006-.006Z"/><path fill="#58126A" d="M44.815 88.65s.977.522 2.663-.192c0 0-2.436 2.358-2.663.192Zm.708-.384s.953-.354 1.043.06c0 0 .828-.198.648-.528-.18-.33-1.691.468-1.691.468Z"/><path fill="#FBF1F8" d="M44.815 88.65s.977.522 2.663-.192c0 0-2.436 2.358-2.663.192Zm.708-.384s.953-.354 1.043.06c0 0 .828-.198.648-.528-.18-.33-1.691.468-1.691.468Z" opacity="0.2"/><path fill="#58126A" d="M45.102 92.412c.462.51 1.242.678 1.896.474.66-.204 1.188-.732 1.47-1.356.288-.624.348-1.338.264-2.022-.018-.174-.09-.618-.33-.642-.222-.024-.3.294-.372.45-.21.45-.438.876-.738 1.272a6.52 6.52 0 0 1-.99 1.044c-.102.084-1.122.876-1.206.786l.006-.006Z"/><path fill="#58126A" d="M49.44 89.034a1.63 1.63 0 0 1 .09 1.596c-.162.33-.432.588-.708.834-.192.168-.444.342-.684.246-.252-.108-.294-.444-.288-.72 0-.426.024-.846.054-1.272.024-.348-.03-.912.114-1.23.132-.3.42-.186.732-.048.276.126.522.33.69.588v.006Z"/><path fill="#FBF1F8" d="M45.264 91.662a1.177 1.177 0 0 1-1.128-.528c-.168-.276-.306-1.032.06-1.2.294.642.552 1.224 1.062 1.728h.006Zm2.904-.558c.384-.192.666-.588.714-1.014.03-.234-.27-1.362-.522-.822-.084.18.03.678.012.888a4.24 4.24 0 0 1-.204.948Zm-1.428.99c.366.21.87.132 1.152-.18 0 .228-.666.54-.87.642-.533.27-.87.072-1.457-.054 0 0 .888-.024 1.175-.408Z" opacity="0.2"/><path fill="#FBF1F8" d="m49.956 115.26-3.054-17.04-.072-5.334.342-.006.072 5.316 3.102 17.328-.39-.264Z"/><path fill="#FBF1F8" d="m47.19 98.082-.228.252c-.33-.3-.654-.708-1.032-1.188-.582-.732-1.236-1.566-2.13-2.25l.21-.27c.924.708 1.596 1.56 2.19 2.31.366.462.678.864.99 1.146Z"/><path fill="#58126A" d="M46.974 95.76c.432-.204.786-.564.978-1.002.216-.498.222-1.056.222-1.596-.558.282-1.242.114-1.836.294a1.632 1.632 0 0 0-1.044.99c-.216.606-.234 1.254.09 1.452.27.162 1.008.132 1.59-.138Zm-2.478-.762c-.48.444-1.164.66-1.812.57-.648-.09-.996-.972-1.338-1.53.534-.216 1.956-.39 2.28-.42.324-.03.672.06.894.3.222.24.264.648.036.888-.018-.006-.066.192-.066.192h.006Z"/><path fill="#58126A" d="M41.886 96.504c.288-.522 1.152-1.014 1.746-1.014.594 0 1.158.306 1.452.744-.084.396-.456.678-.846.774-.39.096-.804.054-1.2.006-.402-.048-.81-.09-1.2.006l.048-.516Zm9.324 8.304h-3.59c-.27 0-.51.168-.588.426-.294.93-.924 3.378-.924 7.236 0 4.236 1.104 9.858 1.452 11.52.06.282.306.48.588.48h2.496a.604.604 0 0 0 .588-.48c.348-1.662 1.452-7.284 1.452-11.52 0-3.858-.63-6.3-.924-7.236a.612.612 0 0 0-.558-.426h.006Z"/><path fill="#000" fill-opacity="0.3" d="M150 223.236c64.249 0 116.334-3.041 116.334-6.792s-52.085-6.792-116.334-6.792c-64.25 0-116.334 3.041-116.334 6.792s52.085 6.792 116.334 6.792Z"/><path fill="#263238" d="M72.468 193.092a.383.383 0 0 1-.36-.39c.444-17.634 1.356-46.56 1.404-46.722a.387.387 0 0 1 .474-.258c.204.06.318.276.258.474-.012.036-.93 29.064-1.368 46.518 0 .21-.18.378-.39.372h-.018v.006Z"/><path fill="#58126A" d="M70.098 134.208c.15 1.356 1.776 6.066 3.132 5.922 1.356-.15 1.932-5.094 1.788-6.456a2.472 2.472 0 0 0-4.914.534h-.006Zm6.594 14.85c-.15-1.356-1.776-6.066-3.132-5.916-1.356.15-1.933 5.094-1.788 6.456a2.472 2.472 0 0 0 4.913-.534l.007-.006ZM65.97 144.93c1.356-.15 6.066-1.776 5.916-3.132-.15-1.356-5.094-1.932-6.456-1.788a2.472 2.472 0 0 0 .534 4.914l.006.006Zm14.85-6.594c-1.356.15-6.066 1.776-5.922 3.132.15 1.356 5.094 1.932 6.456 1.788a2.472 2.472 0 0 0-.534-4.914v-.006Z"/><path fill="#58126A" d="M65.814 138.714c1.068.858 5.544 3.036 6.402 1.968.858-1.068-2.238-4.974-3.3-5.826a2.477 2.477 0 0 0-3.48.378 2.477 2.477 0 0 0 .377 3.48Zm15.162 5.838c-1.062-.858-5.544-3.036-6.402-1.968-.858 1.062 2.238 4.968 3.3 5.826a2.477 2.477 0 0 0 3.48-.378 2.477 2.477 0 0 0-.378-3.48Zm-10.5 4.662c.858-1.062 3.036-5.544 1.968-6.402-1.062-.858-4.968 2.238-5.826 3.3a2.477 2.477 0 0 0 .378 3.48 2.477 2.477 0 0 0 3.48-.378Zm5.838-15.162c-.858 1.062-3.036 5.544-1.968 6.402 1.062.858 4.968-2.238 5.826-3.3a2.477 2.477 0 0 0-.378-3.48 2.477 2.477 0 0 0-3.48.378Z"/><g fill="#fff" opacity="0.6"><path d="M70.098 134.208c.15 1.356 1.776 6.066 3.132 5.922 1.356-.15 1.932-5.094 1.788-6.456a2.472 2.472 0 0 0-4.914.534h-.006Zm6.594 14.85c-.15-1.356-1.776-6.066-3.132-5.916-1.356.15-1.933 5.094-1.788 6.456a2.472 2.472 0 0 0 4.913-.534l.007-.006ZM65.97 144.93c1.356-.15 6.066-1.776 5.916-3.132-.15-1.356-5.094-1.932-6.456-1.788a2.472 2.472 0 0 0 .534 4.914l.006.006Zm14.85-6.594c-1.356.15-6.066 1.776-5.922 3.132.15 1.356 5.094 1.932 6.456 1.788a2.472 2.472 0 0 0-.534-4.914v-.006Z"/><path d="M65.814 138.714c1.068.858 5.544 3.036 6.402 1.968.858-1.068-2.238-4.974-3.3-5.826a2.477 2.477 0 0 0-3.48.378 2.477 2.477 0 0 0 .377 3.48Zm15.162 5.838c-1.062-.858-5.544-3.036-6.402-1.968-.858 1.062 2.238 4.968 3.3 5.826a2.477 2.477 0 0 0 3.48-.378 2.477 2.477 0 0 0-.378-3.48Zm-10.5 4.662c.858-1.062 3.036-5.544 1.968-6.402-1.062-.858-4.968 2.238-5.826 3.3a2.477 2.477 0 0 0 .378 3.48 2.477 2.477 0 0 0 3.48-.378Zm5.838-15.162c-.858 1.062-3.036 5.544-1.968 6.402 1.062.858 4.968-2.238 5.826-3.3a2.477 2.477 0 0 0-.378-3.48 2.477 2.477 0 0 0-3.48.378Z"/></g><path fill="#58126A" d="M70.482 141.948a2.931 2.931 0 0 0 5.826-.63 2.931 2.931 0 0 0-5.826.63Zm.288 38.226c-3.378.072-9.162-3.048-11.442-6.096-2.31-3.09 4.17-1.188 3.498-3.618-.672-2.43-8.646-.612-10.128-4.092-1.482-3.48 4.278-2.7 4.044-4.476-.234-1.782-6.198-1.404-8.124-5.1-1.926-3.702 3.324-1.638 2.496-3.174-.828-1.536-7.422-7.98-4.674-9.336 2.748-1.356 8.928 5.358 10.998 6.102 2.07.744 2.538-3.906 5.232-1.692 2.694 2.214.708 11.946 3.876 13.218 2.358.948 1.344-3.498 4.062-2.382 4.752 1.95 1.536 20.616.162 20.646Z"/><path fill="#fff" d="M70.77 180.174c-3.378.072-9.162-3.048-11.442-6.096-2.31-3.09 4.17-1.188 3.498-3.618-.672-2.43-8.646-.612-10.128-4.092-1.482-3.48 4.278-2.7 4.044-4.476-.234-1.782-6.198-1.404-8.124-5.1-1.926-3.702 3.324-1.638 2.496-3.174-.828-1.536-7.422-7.98-4.674-9.336 2.748-1.356 8.928 5.358 10.998 6.102 2.07.744 2.538-3.906 5.232-1.692 2.694 2.214.708 11.946 3.876 13.218 2.358.948 1.344-3.498 4.062-2.382 4.752 1.95 1.536 20.616.162 20.646Z" opacity="0.2"/><path fill="#58126A" d="M75.63 175.884c.054.096-.45.576 1.218.642 4.11.168 11.376-.108 14.106-3.846 3.894-5.334-5.088-4.848-4.218-7.788.876-2.94 10.53-.54 12.414-4.74 1.884-4.2-5.136-3.378-4.812-5.544.324-2.16 7.692.642 10.122-3.816 2.43-4.458-4.008-2.07-2.964-3.918 1.044-1.848 9.216-9.534 5.904-11.244-3.312-1.71-10.986 6.312-13.518 7.17-2.532.858-3.12-7.008-6.444-4.38-3.33 2.634-1.146 14.514-5.028 15.984-2.892 1.098-1.314-3.156-4.884-2.994-4.848.222-6.438 16.878-1.902 24.468l.006.006Z"/><path fill="#fff" d="M75.63 175.884c.054.096-.45.576 1.218.642 4.11.168 11.376-.108 14.106-3.846 3.894-5.334-5.088-4.848-4.218-7.788.876-2.94 10.53-.54 12.414-4.74 1.884-4.2-5.136-3.378-4.812-5.544.324-2.16 7.692.642 10.122-3.816 2.43-4.458-4.008-2.07-2.964-3.918 1.044-1.848 9.216-9.534 5.904-11.244-3.312-1.71-10.986 6.312-13.518 7.17-2.532.858-3.12-7.008-6.444-4.38-3.33 2.634-1.146 14.514-5.028 15.984-2.892 1.098-1.314-3.156-4.884-2.994-4.848.222-6.438 16.878-1.902 24.468l.006.006Z" opacity="0.3"/><path fill="#263238" d="M72.552 190.428h-.024a.27.27 0 0 1-.234-.3c3.372-27.612 19.278-38.832 19.44-38.94a.269.269 0 0 1 .372.066.269.269 0 0 1-.066.372c-.156.108-15.87 11.208-19.212 38.568a.268.268 0 0 1-.276.234Z"/><path fill="#263238" d="M88.11 155.022a.269.269 0 0 1-.246-.186.263.263 0 0 1 .174-.336c.096-.03 2.466-.78 6.348.042a.268.268 0 0 1-.114.522c-3.732-.792-6.048-.066-6.072-.06a.249.249 0 0 1-.096.012l.006.006Zm-2.934 3.354c-.144 0-.252-.12-.258-.264-.084-8.352 4.752-14.874 4.8-14.94a.263.263 0 0 1 .372-.054c.12.09.144.258.054.372-.048.066-4.776 6.45-4.692 14.61 0 .15-.12.27-.264.27h-.012v.006Zm-4.74 7.068a.266.266 0 0 1-.174-.462c.036-.036 3.612-3.342 8.298-1.662a.27.27 0 0 1 .162.342.27.27 0 0 1-.342.162c-4.38-1.572-7.722 1.518-7.752 1.548a.266.266 0 0 1-.192.072Zm-2.478 4.926a.26.26 0 0 1-.234-.162c-.078-.174-1.83-4.374-.864-10.356a.266.266 0 0 1 .306-.222.27.27 0 0 1 .222.306c-.942 5.82.81 10.02.828 10.062.06.138 0 .294-.144.348a.26.26 0 0 1-.114.024Zm-5.304 29.922c-.138 0-.252-.12-.258-.258l-.348-7.314c-1.026-24.312-17.7-40.854-17.868-41.016a.261.261 0 0 1 0-.378.261.261 0 0 1 .378 0c.168.168 16.998 16.842 18.03 41.382l.348 7.314c0 .15-.114.27-.258.276h-.018l-.006-.006Z"/><path fill="#263238" d="M61.062 160.836h-.042c-.024 0-.054-.018-.078-.03l-.084-.036c-2.184-.906-4.62-1.38-6.87-1.326a.269.269 0 0 1-.276-.264c0-.15.114-.27.264-.276 2.316-.048 4.836.432 7.086 1.368l.09.036s.03.012.048.024a.266.266 0 0 1 .138.294.26.26 0 0 1-.27.21h-.006Zm2.358 3.132h-.012a.263.263 0 0 1-.24-.288c.648-7.176-3.072-13.08-3.108-13.14a.272.272 0 0 1 .084-.372.272.272 0 0 1 .372.084c.036.06 3.852 6.114 3.192 13.476a.274.274 0 0 1-.276.246l-.012-.006Zm2.436 4.158a.26.26 0 0 1-.18-.078c-.03-.03-2.736-2.7-6.702-1.644a.269.269 0 0 1-.33-.192.274.274 0 0 1 .192-.33c4.272-1.14 7.098 1.668 7.218 1.788a.272.272 0 0 1 0 .378.276.276 0 0 1-.198.078Zm3.09 6.852a.267.267 0 0 1-.228-.39c.018-.036 1.854-3.624 1.434-8.802a.265.265 0 0 1 .246-.288.26.26 0 0 1 .288.246c.432 5.34-1.416 8.94-1.494 9.09a.262.262 0 0 1-.246.144Z"/><path fill="#58126A" d="M87.696 201.444c0 8.526-3.834 15.444-15.45 15.444s-15.45-6.918-15.45-15.444c0-3.216.99-6.21 2.67-8.682h25.566a15.411 15.411 0 0 1 2.67 8.682h-.006Z"/><path fill="#fff" d="M87.696 201.444c0 8.526-3.834 15.444-15.45 15.444s-15.45-6.918-15.45-15.444c0-3.216.99-6.21 2.67-8.682h25.566a15.411 15.411 0 0 1 2.67 8.682h-.006Z" opacity="0.7"/><path fill="#E8BFBF" d="m176.46 209.346 5.976-.87-1.506-13.986-5.982.876 1.512 13.98Z"/><path fill="#58126A" d="M187.032 208.686a2.281 2.281 0 0 0 1.392-.606.802.802 0 0 0 .138-.732.46.46 0 0 0-.3-.336c-.798-.288-2.982 1.326-3.228 1.506-.048.036-.066.102-.054.162a.143.143 0 0 0 .132.096c.642.03 1.284 0 1.92-.09Zm.84-1.404a.514.514 0 0 1 .27.006c.06.018.108.072.126.138a.527.527 0 0 1-.09.48c-.306.384-1.284.6-2.646.6a7.955 7.955 0 0 1 2.352-1.236h-.018l.006.012Z"/><path fill="#58126A" d="m185.148 208.776.048-.024c.666-.438 1.86-1.956 1.632-2.616-.066-.15-.192-.336-.594-.312-.288 0-.564.132-.756.354-.648.744-.516 2.382-.516 2.448a.15.15 0 0 0 .06.126c.036.03.078.036.126.024Zm1.002-2.652.078-.036c.264-.012.294.084.3.12.138.396-.654 1.566-1.314 2.106-.06-.69.096-1.38.456-1.968a.741.741 0 0 1 .486-.228h-.012l.006.006Z"/><path fill="#FBF1F8" d="m181.824 205.998-5.298 1.26a.475.475 0 0 0-.378.516l.174 7.668a.98.98 0 0 0 1.104.84c.036 0 .072-.012.108-.024 2.298-.57 3.378-.96 6.3-1.632 1.788-.414 7.458-.84 9.78-1.872 2.322-1.032 1.416-3.39.36-3.162-3.408.732-7.782-.726-10.266-2.946-.336-.168-1.518-.738-1.878-.648h-.006Z"/><path fill="#000" d="m180.93 194.49.774 7.212-5.976.876-.78-7.206 5.982-.882Z" opacity="0.2"/><path fill="#58126A" d="m184.122 198.732-11.058 2.064s-5.37-7.668-6.384-13.11c-1.056-5.67.072-24.966 0-25.224-3.126-10.56-11.628-37.92-15.726-47.988a755.166 755.166 0 0 0-3.87-9.336l1.146-.258 9.024-3.696 6.576 1.242s19.986 40.416 22.086 55.62c1.566 11.352-1.8 40.686-1.8 40.686h.006Z"/><path fill="#fff" d="m184.122 198.732-11.058 2.064s-5.37-7.668-6.384-13.11c-1.056-5.67.072-24.966 0-25.224-3.126-10.56-11.628-37.92-15.726-47.988a755.166 755.166 0 0 0-3.87-9.336l1.146-.258 9.024-3.696 6.576 1.242s19.986 40.416 22.086 55.62c1.566 11.352-1.8 40.686-1.8 40.686h.006Z" opacity="0.3"/><path fill="#000" d="M164.076 153.324c-3.126-10.56-9.438-26.574-13.542-36.642l-2.718-9.594-.522-1.848.954 1.746 10.71 23.73c4.728 9.084 5.19 22.866 5.118 22.614v-.006Z" opacity="0.2"/><path fill="#E8BFBF" d="m115.542 206.052 5.328 2.244 5.682-12.192-5.322-2.244-5.688 12.192Z"/><path fill="#58126A" d="M124.338 210.852c.42.264.924.378 1.416.318a.75.75 0 0 0 .516-.486.446.446 0 0 0-.042-.432c-.456-.672-3.054-.666-3.342-.66-.06 0-.108.042-.132.09a.134.134 0 0 0 .048.15c.48.384.99.726 1.53 1.014l.006.006Zm1.44-.606c.084.036.156.09.204.162a.18.18 0 0 1 .018.174.513.513 0 0 1-.342.324c-.456.12-1.326-.264-2.382-1.032a7.457 7.457 0 0 1 2.514.378h-.018l.006-.006Z"/><path fill="#58126A" d="m122.832 209.862.048.012c.756.036 2.544-.462 2.742-1.098.03-.15.042-.366-.282-.576a.976.976 0 0 0-.78-.156c-.918.21-1.746 1.542-1.782 1.596a.133.133 0 0 0-.024.132.139.139 0 0 0 .084.09h-.006Zm2.274-1.482.084.018c.21.138.18.234.168.264-.114.384-1.386.84-2.202.888a3.12 3.12 0 0 1 1.464-1.26c.174-.03.354 0 .504.102h-.012l-.006-.012Z"/><path fill="#FBF1F8" d="m121.836 205.836-4.806-2.022a.456.456 0 0 0-.582.186l-4.2 6.018a.938.938 0 0 0 .378 1.272c.03.018.066.03.096.048 2.094.858 3.15 1.17 5.79 2.298 1.614.696 6.234 3.564 8.61 4.08 2.376.516 3.006-1.812 2.064-2.244-3.042-1.362-5.598-4.956-6.264-8.076-.168-.318-.756-1.428-1.086-1.56Z"/><path fill="#000" d="m126.786 196.248-3.084 6.21-5.268-2.364 3.072-6.216 5.28 2.37Z" opacity="0.2"/><path fill="#58126A" d="m127.896 203.016-10.608-5.652s-2.034-7.554 0-12.372c3.912-9.27 14.1-22.902 14.166-23.16 2.718-10.674 7.482-39.894 9.114-50.646.906-5.958 1.434-7.242 1.434-7.242l1.122.366 16.23.03s3.06 24.582-8.676 62.64c-2.922 9.468-7.812 17.34-15.864 27.996-3.054 4.044-6.924 8.04-6.924 8.04h.006Z"/><path fill="#fff" d="m127.896 203.016-10.608-5.652s-2.034-7.554 0-12.372c3.912-9.27 14.1-22.902 14.166-23.16 2.718-10.674 7.482-39.894 9.114-50.646.906-5.958 1.434-7.242 1.434-7.242l1.122.366 16.23.03s3.06 24.582-8.676 62.64c-2.922 9.468-7.812 17.34-15.864 27.996-3.054 4.044-6.924 8.04-6.924 8.04h.006Z" opacity="0.3"/><path fill="#E8BFBF" d="M173.736 84.258c.12-1.824 1.326-4.17 2.37-5.256.336-.348 1.602-.876 2.316-1.344 3.522-2.31 10.578-5.196 10.578-5.196l2.178 1.896s-4.296 4.152-6.852 6.144c-.504.39-1.086.864-1.698 1.368-1.11.93-6.342 4.38-7.344 5.244l-1.548-2.862v.006Z"/><path fill="#E8BFBF" d="m195.204 71.394-4.026 2.976-2.256-1.662s.924-1.176 1.866-2.082c.414-.402.642-.948.648-1.524.006-.888.144-1.914.624-2.67.012-.018.018-.036.03-.048.87-1.314 2.916-.918 3.324.6l.582 2.148a2.128 2.128 0 0 1-.792 2.268v-.006Z"/><path fill="#263238" d="m175.02 85.062-1.062.972c-.33-.264-.858-.69-1.518-1.236-5.172-4.296-18.138-14.706-12.966-17.682 4.428-2.55 9.138 5.25 11.484 7.59.48.486 1.788 1.992 2.844 3.888 1.104 1.986 1.92 4.392 1.218 6.468Z"/><path fill="#263238" d="M173.796 77.664a17.418 17.418 0 0 0-4.584 4.992c.852 2.82 2.994 5.268 5.694 6.444 1.482-3.432 2.166-7.128 1.878-10.854-.936-.204-2.052-.378-2.988-.582Z"/><path fill="#000" fill-opacity="0.8" d="M145.326 66.51c-1.848.594-3.966.12-5.154 1.656-1.188 1.536-1.542 3.57-1.542 5.514 0 2.7.618 5.364 1.236 7.992.744 3.192 1.488 6.384 2.238 9.576.51 2.184-.024 12.324.516 12.498 0 0 16.962-.33 21.216-.93 0 0 .372-10.428.708-13.98.078-.786 1.272-4.134 1.41-4.974.66-3.96-.636-6.756-2.01-10.53 0 0-3.006-6.048-4.47-6.21-2.61-.294-8.994-2.268-14.148-.606v-.006Z"/><path fill="#000" fill-opacity="0.8" d="M144.612 71.514c-.06-.354-3.072-6.432-5.958-2.184-4.014 5.916-4.284 13.344-4.284 13.344s-2.466 7.224-.75 8.802c1.722 1.578 3.576 2.592 4.776 1.698 1.2-.894 1.98-2.682 1.98-2.682s5.286-12.786 4.236-18.978Z"/><path fill="#263238" d="M144.414 64.254c-1.266.99-1.098 3.276.294 4.074-.348 1.224.06 2.64 1.014 3.486.954.846 2.406 1.086 3.582.594-.51.912.066 2.112.942 2.676.876.564 1.962.666 2.994.804 1.032.138 2.124.36 2.88 1.086 1.068-1.536 2.136-3.078 3.21-4.614.414-.6.846-1.242.882-1.968.03-.726-.522-1.53-1.248-1.476.738-.768.756-2.124.03-2.91-.72-.786-2.07-.888-2.904-.216.15-.618-.21-1.272-.732-1.632-.522-.36-1.17-.486-1.8-.546l-9.144.648v-.006Z"/><path fill="#E8BFBF" d="M146.34 56.424c.834 3.06 1.848 8.706-.18 10.938 0 0 5.73 2.292 9.798 6.894 1.896-1.842 1.698-3.912 1.116-5.424-.45-1.17-1.416-2.04-2.574-2.532-2.232-.948-2.25-3.144-1.878-5.244l-6.288-4.632h.006Z"/><path fill="#000" d="m147.588 61.638 2.106.57c.9.246 1.848.3 2.772.162-.006.456-.09 1.416.198 1.926-1.212.582-3.258.186-4.158-.882-.372-.414-.708-1.26-.912-1.782l-.006.006Z" opacity="0.2"/><path fill="#E8BFBF" d="M142.254 53.82c2.232 4.704 3.072 6.744 6.51 8.244 5.172 2.262 10.452-1.518 9.666-6.792-.702-4.746-4.236-11.646-9.726-11.67a7.107 7.107 0 0 0-6.456 10.224l.006-.006Z"/><path fill="#263238" d="M144.702 44.832c-1.626-.756-3.642-.138-4.998 1.05-1.374 1.212-2.214 2.904-3.018 4.554-.438.894-.876 1.806-1.08 2.778-.204.978-.144 2.046.372 2.898.504.834 1.446 1.386 2.418 1.44.558.03 1.212.438 1.398.966.168.492.09 1.026.012 1.536-.078.498-.15 1.014.006 1.488.258.792 1.104 1.272 1.938 1.356.828.078 1.65-.162 2.454-.396.504-.15 1.014-.066 1.41.288.096.09.18.192.24.312.246.474.966.396 1.176-.096.726-1.728-.33-4.482-1.902-6.588-.834-1.116-.792-.834-1.116-2.19-.276-1.128.138-2.304.648-3.348.672-1.392 1.542-2.754 1.272-4.416a2.2 2.2 0 0 0-1.212-1.632h-.018Z"/><path fill="#E8BFBF" d="M142.392 58.632a4.092 4.092 0 0 0 2.844 1.284c1.434.03 1.794-1.338 1.104-2.502-.624-1.05-2.124-2.328-3.42-1.824-1.296.51-1.428 2.058-.528 3.042Z"/><path fill="#263238" d="M151.218 52.98c.168.414.492.63.75.522.258-.108.324-.498.18-.9-.144-.402-.492-.624-.75-.522-.258.102-.336.504-.18.9Zm4.392-1.89c.162.414.492.63.75.528.252-.102.324-.498.18-.9-.144-.402-.492-.624-.75-.528-.258.096-.336.504-.18.9Z"/><path fill="#263238" d="m155.676 50.268.834-.654s-.18.93-.834.654Z"/><path fill="#ED847E" d="M154.47 51.972c1.02 1.008 1.788 1.188 2.892 1.884-.03.978-.954 1.206-.954 1.206l-1.938-3.084v-.006Z"/><path fill="#263238" d="M155.941 56.982c.192-.072.372-.156.552-.258.06-.03.078-.102.048-.162a.135.135 0 0 0-.168-.054c-.93.54-2.064.6-3.048.162-.06-.03-.138-.012-.168.054-.03.06-.012.138.054.168a3.548 3.548 0 0 0 2.736.096l-.006-.006Zm-4.885-7.266a.263.263 0 0 1-.192.24c-1.152.342-1.662 1.8-1.662 1.812a.257.257 0 0 1-.33.162.257.257 0 0 1-.162-.33c.042-.054.6-1.728 2.004-2.148a.27.27 0 0 1 .324.174c.012.03.018.054.024.084l-.006.006Zm5.31-.708a.263.263 0 0 1-.306-.024c-.936-.75-2.43-.336-2.436-.336a.26.26 0 0 1-.324-.174.26.26 0 0 1 .174-.324c.072 0 1.764-.492 2.91.42a.27.27 0 0 1 .042.366.208.208 0 0 1-.06.066v.006Zm-5.07 3.144.834-.648s-.192.93-.834.648Z"/><path fill="#263238" d="M145.062 44.046a4.352 4.352 0 0 0-3.264 1.956c-.474.744-.642 1.872.06 2.4.33.246.768.294 1.176.33 1.824.162 4.08-1.248 4.08-1.248-.702-2.982 5.55-5.292 8.634-.672.906 1.356.66 2.34 2.166 2.97.708.294 1.644.216 2.1.834.756 1.026-.696 2.766.228 3.648.63.606 2.058.372 2.142 1.242.042.408-.228.996.168 1.116.216.066.414-.132.558-.312.342-.432.69-.882.804-1.416.114-.534-.072-1.182-.576-1.41-.384-.174-1.398.018-1.326.438.084.498-.348-1.956-.156-2.88.168-.81.936-1.506.702-2.298-.252-.846-1.254-1.182-2.124-1.308-.87-.126-1.86-.234-2.394-.93-.594-.78-.324-1.896-.516-2.856-.246-1.224-1.266-2.178-2.412-2.676-3.48-1.506-8.856-1.296-10.056 3.078l.006-.006Z"/><path fill="#8A5997" d="m154.944 60.054-11.994 6.024a8.54 8.54 0 0 0-4.116 10.752l5.784 14.754a8.554 8.554 0 0 0 10.332 5.094l12.9-3.72c4.836-1.392 7.422-6.642 5.586-11.328l-6.69-17.064c-1.836-4.686-7.302-6.78-11.796-4.518l-.006.006Zm-1.98 25.344a5.203 5.203 0 0 1-6.744-2.946 5.194 5.194 0 0 1 2.946-6.738 5.203 5.203 0 0 1 6.744 2.946 5.194 5.194 0 0 1-2.946 6.738Z"/><path fill="#8A5997" d="m154.944 60.054-11.994 6.024a8.54 8.54 0 0 0-4.116 10.752l5.784 14.754a8.554 8.554 0 0 0 10.332 5.094l12.9-3.72c4.836-1.392 7.422-6.642 5.586-11.328l-6.69-17.064c-1.836-4.686-7.302-6.78-11.796-4.518l-.006.006Zm-1.98 25.344a5.203 5.203 0 0 1-6.744-2.946 5.194 5.194 0 0 1 2.946-6.738 5.203 5.203 0 0 1 6.744 2.946 5.194 5.194 0 0 1-2.946 6.738Z"/><path fill="#fff" d="m173.43 81.642-6.696-17.064c-1.836-4.686-7.302-6.78-11.796-4.524l-3.486 1.752-2.34 1.176-6.168 3.102a8.544 8.544 0 0 0-4.122 10.752l5.784 14.754a8.554 8.554 0 0 0 10.332 5.094l12.906-3.72a8.539 8.539 0 0 0 2.826-1.428 8.286 8.286 0 0 0 1.656-1.68 8.52 8.52 0 0 0 1.104-8.214Zm-20.478 3.756a5.196 5.196 0 0 1-6.738-2.946 5.196 5.196 0 0 1 2.946-6.738 5.199 5.199 0 0 1 6.738 2.94 5.2 5.2 0 0 1-2.946 6.738v.006Z" opacity="0.1"/><path fill="#8A5997" d="m155.064 61.176-11.25 5.652a8.012 8.012 0 0 0-3.864 10.08l5.424 13.836a8.02 8.02 0 0 0 9.69 4.776l12.102-3.492c4.536-1.308 6.96-6.228 5.238-10.62l-6.276-16.002c-1.722-4.392-6.852-6.36-11.064-4.236v.006Zm-8.85 21.27a5.194 5.194 0 0 1 2.946-6.738 5.203 5.203 0 0 1 6.744 2.946 5.194 5.194 0 0 1-2.946 6.738 5.203 5.203 0 0 1-6.744-2.946Z"/><path fill="#8A5997" d="m155.064 61.176-11.25 5.652a8.012 8.012 0 0 0-3.864 10.08l5.424 13.836a8.02 8.02 0 0 0 9.69 4.776l12.102-3.492c4.536-1.308 6.96-6.228 5.238-10.62l-6.276-16.002c-1.722-4.392-6.852-6.36-11.064-4.236v.006Zm-8.85 21.27a5.194 5.194 0 0 1 2.946-6.738 5.203 5.203 0 0 1 6.744 2.946 5.194 5.194 0 0 1-2.946 6.738 5.203 5.203 0 0 1-6.744-2.946Z" opacity="0.1"/><path fill="#8A5997" d="m210.972 55.842-.342.63-.192.348-.54.99.228 2.538a.798.798 0 0 1-.498.81l-4.74 1.854a.777.777 0 0 1-.672-.048.798.798 0 0 1-.18-.138l-2.682-2.724h-.006l-3.81 1.482.552 1.41-3.81 1.494.912 2.322-2.808 1.098a.852.852 0 0 1-.696-.036.866.866 0 0 1-.192-.138l-1.62-1.524-3.81 1.494.912 2.322-4.008 1.572.912 2.328a.74.74 0 0 1-.42.96l-10.98 4.296-4.764-12.15 39.714-15.546.624.318 2.016 1.032a2.193 2.193 0 0 1 .924 3l-.024.006Z"/><path fill="#fff" d="m210.972 55.842-.342.63-.192.348-.54.99.228 2.538a.798.798 0 0 1-.498.81l-4.74 1.854a.777.777 0 0 1-.672-.048.798.798 0 0 1-.18-.138l-2.682-2.724h-.006l-3.81 1.482.552 1.41-3.81 1.494.912 2.322-2.808 1.098a.852.852 0 0 1-.696-.036.866.866 0 0 1-.192-.138l-1.62-1.524-3.81 1.494.912 2.322-4.008 1.572.912 2.328a.74.74 0 0 1-.42.96l-10.98 4.296-4.764-12.15 39.714-15.546.624.318 2.016 1.032a2.193 2.193 0 0 1 .924 3l-.024.006Z" opacity="0.1"/><path fill="#8A5997" d="m210.816 54.456-42.456 16.62-1.236-3.12 40.482-15.846 2.016 1.032c.768.396 1.206.756 1.2 1.314h-.006Z"/><path fill="#000" d="m210.816 54.456-42.456 16.62-1.236-3.12 40.482-15.846 2.016 1.032c.768.396 1.206.756 1.2 1.314h-.006Z" opacity="0.1"/><path fill="#8A5997" d="m209.976 56.802-.408.924s-.012.03-.006.048l.228 2.514c.006.09 0 .18-.024.27a.094.094 0 0 1-.06.066l-5.154 2.028s-.06.012-.084-.006a.606.606 0 0 1-.138-.114l-2.946-2.964s-.066-.036-.102-.024l-4.188 1.65c-.048.018-.072.078-.054.126l.498 1.26c.018.048 0 .108-.054.126l-3.57 1.404c-.048.018-.072.078-.054.126l.858 2.178c.018.048 0 .108-.054.126l-2.616 1.032s-.06.012-.084 0a.943.943 0 0 1-.156-.114l-1.914-1.764s-.066-.03-.102-.018l-4.158 1.638c-.048.018-.072.078-.054.126l.882 2.232c.018.048 0 .108-.054.126l-15.966 6.282c-.048.018-.108 0-.126-.054l-1.596-3.996c-.018-.048 0-.108.054-.126l41.604-16.374c.078-.03.162.048.126.132l-.522 1.152-.006-.012Z"/><path fill="#000" d="m209.976 56.802-.408.924s-.012.03-.006.048l.228 2.514c.006.09 0 .18-.024.27a.094.094 0 0 1-.06.066l-5.154 2.028s-.06.012-.084-.006a.606.606 0 0 1-.138-.114l-2.946-2.964s-.066-.036-.102-.024l-4.188 1.65c-.048.018-.072.078-.054.126l.498 1.26c.018.048 0 .108-.054.126l-3.57 1.404c-.048.018-.072.078-.054.126l.858 2.178c.018.048 0 .108-.054.126l-2.616 1.032s-.06.012-.084 0a.943.943 0 0 1-.156-.114l-1.914-1.764s-.066-.03-.102-.018l-4.158 1.638c-.048.018-.072.078-.054.126l.882 2.232c.018.048 0 .108-.054.126l-15.966 6.282c-.048.018-.108 0-.126-.054l-1.596-3.996c-.018-.048 0-.108.054-.126l41.604-16.374c.078-.03.162.048.126.132l-.522 1.152-.006-.012Z" opacity="0.1"/><path fill="#fff" d="M148.842 74.412a6.526 6.526 0 1 0 4.764 12.15 6.526 6.526 0 1 0-4.764-12.15Zm4.116 10.98a5.203 5.203 0 0 1-6.744-2.946 5.194 5.194 0 0 1 2.946-6.738 5.203 5.203 0 0 1 6.744 2.946 5.194 5.194 0 0 1-2.946 6.738Z" opacity="0.3"/><path fill="#fff" d="M172.326 89.85c-.468.63-1.02 1.2-1.656 1.68l-21.558-28.554-.018-.024s1.902-.954 2.328-1.236c0 .024.012.054.03.09.942 2.022 17.886 24.024 20.874 28.05v-.006Zm-3.114 2.58c-.138.066-6.414 1.974-6.414 1.974l-7.002-9.27a6.511 6.511 0 0 0 1.506-7.032 6.53 6.53 0 0 0-9.3-3.294l-6.192-8.202s5.442-2.592 6.048-2.97c.162 1.152 21.354 28.554 21.354 28.8v-.006Z" opacity="0.1"/><path fill="#263238" d="M143.514 47.394a3.608 3.608 0 0 0-.75 3.066 3.625 3.625 0 0 0 1.98 2.46c.51.24 1.074.354 1.584.6.504.252.978.69 1.032 1.254.06.624-.396 1.2-.354 1.824.042.57.486 1.02.936 1.374.45.354.954.684 1.2 1.2.246.516.09 1.278-.462 1.428-.114.18-.162.606-.012.756a.49.49 0 0 0 .588.072c.846-.522 1.428-1.5 1.434-2.496a2.642 2.642 0 0 0-1.524-2.37c-.162-.33-.036-.75.102-1.092.276-.684.552-1.374.822-2.058.108-.27.012-.762-.174-.984-.186-.222-.462-.348-.732-.462l-1.77-.756c-.666-.288-2.652-2.94-.3-3.714-.306-.684-.84-.894-1.572-1.032-.732-.138-1.542.372-2.022.942l-.006-.012Zm3.21-2.856c-.06.696-.12 1.398-.174 2.094.588-.96 1.674-2.826 1.632-2.754-.462.252-.996.408-1.458.66Z"/><path fill="#263238" d="M147.516 45.684c.822-.756 1.638-1.518 2.46-2.274a1.77 1.77 0 0 0-1.86.432 87.55 87.55 0 0 0-.594 1.842h-.006Z"/><path fill="#000" fill-opacity="0.8" d="M142.518 102.45c-3.198 3.972-2.136 7.014-6.552 14.046 5.568 4.128 11.676 4.812 19.272 4.224.9-1.59 1.35-3.246 2.25-4.836 1.284 1.596 2.322 2.94 3.606 4.536 3.978-.624 8.706-1.74 11.85-3.768-2.778-3.186-4.506-7.164-6.282-10.68-.834-1.65-.486-2.34-2.7-4.5-7.05.324-14.04.498-21.09.822.186.012-.54.15-.354.156Z"/><path fill="#8A5997" d="m143.394 101.784-.444 1.854c-.066.144.108.282.348.27l19.428-.858c.186 0 .336-.108.342-.222l.102-1.842c0-.126-.162-.228-.366-.216l-19.092.84a.383.383 0 0 0-.324.168l.006.006Z"/><path fill="#8A5997" d="m143.394 101.784-.444 1.854c-.066.144.108.282.348.27l19.428-.858c.186 0 .336-.108.342-.222l.102-1.842c0-.126-.162-.228-.366-.216l-19.092.84a.383.383 0 0 0-.324.168l.006.006Z"/><path fill="#263238" d="m147.677 103.914-.564.024c-.108 0-.198-.048-.192-.114l.15-2.394c0-.066.096-.126.21-.132l.564-.03c.108 0 .198.048.192.12l-.15 2.388c-.006.066-.102.132-.21.138Zm14.029-.606-.564.024c-.108 0-.198-.048-.192-.114l.15-2.388c0-.072.096-.132.204-.138l.564-.024c.108 0 .198.048.192.114l-.15 2.388c0 .072-.09.132-.204.138Z"/><path fill="#E8BFBF" d="M150.187 92.262c.036.174 1.548 2.58 2.73 2.412h.03c.342-.048.69.09.9.366.474.618.762.972 1.08 1.38.522.66 1.428.87 2.184.516.228-.102.45-.222.672-.336a1.814 1.814 0 0 0 .906-2.034 9.882 9.882 0 0 0-1.008-2.526c-.156-.27-.33-.54-.6-.696-.27-.156-2.874-.942-3.882-.912-1.05.036-2.052 1.41-3.012 1.836v-.006Z"/><path fill="#E8BFBF" d="M153.228 90.348s-15.948-4.83-19.392-1.614c-2.022 1.89-1.068 3.678.066 4.824.84.858 2.676.648 3.87.588l12.564-1.23 2.892-2.568Z"/><path fill="#000" fill-opacity="0.8" d="M144.06 88.14c-.084-.864-.756-1.578-1.53-1.968-.774-.384-1.656-.504-2.514-.612-2.004-.252-4.008-.51-6.012-.762-1.02 1.284-1.752 3.054-1.716 4.698a7.213 7.213 0 0 0 1.716 4.512c.96-1.854 2.226-3.762 4.098-4.686 1.872-.918 3.912-1.554 5.964-1.182h-.006Z"/><path fill="#fff" d="M139.95 59.01c-.018-.036-.018-.054 0-.06.126-.036.108-.012 0 .06Z" opacity="0.1"/><path fill="#58126A" d="m179.574 33.186 4.446 8.238 18.132-15.396c.162-.138-.024-.384-.198-.264l-16.998 11.22-2.622-5.112-2.76 1.314Z"/><path stroke="#58126A" stroke-miterlimit="10" stroke-width="1.3" d="M208.182 33.228c0 7.344-7.71 13.296-17.214 13.296-3.648 0-7.032-.87-9.816-2.376l-10.11 4.392 6.378-7.104c-2.298-2.25-3.672-5.1-3.672-8.202 0-7.344 7.71-13.296 17.214-13.296 9.504 0 17.214 5.952 17.214 13.296l.006-.006Z"/></g><defs><clipPath id="a"><path fill="#fff" d="M0 0h300v223.236H0z"/></clipPath></defs></svg>