<svg xmlns="http://www.w3.org/2000/svg" width="60" height="60" fill="none" viewBox="0 0 60 60"><g clip-path="url(#a)"><path fill="#fff" d="M30.89 58.25c-.13-1.05.62-2.02 1.68-2.14 1.06-.13 2.02.62 2.14 1.68.13 1.05-.62 2.02-1.68 2.14-.08 0-.16.01-.24.01-.96 0-1.79-.72-1.91-1.69h.01Zm-12.19-.04c-1-.38-1.5-1.49-1.12-2.48a1.92 1.92 0 0 1 2.48-1.12c.99.38 1.5 1.49 1.12 2.48-.3.77-1.03 1.25-1.8 1.25-.22 0-.46-.04-.68-.12v-.01Zm25.15-3.9c-.6-.87-.39-2.07.49-2.68.87-.6 2.07-.39 2.68.49.61.87.39 2.07-.48 2.68a1.942 1.942 0 0 1-2.69-.49ZM6.82 50.02c-.71-.8-.64-2.02.15-2.72.8-.71 2.02-.64 2.72.16.71.8.64 2.02-.16 2.72a1.919 1.919 0 0 1-2.72-.16h.01Zm46.68-5.21c-.94-.5-1.3-1.66-.81-2.61a1.93 1.93 0 0 1 2.6-.81c.94.49 1.3 1.66.81 2.6a1.92 1.92 0 0 1-1.71 1.03c-.3 0-.61-.07-.89-.22v.01ZM.08 37.25a1.93 1.93 0 0 1 1.41-2.33 1.92 1.92 0 0 1 2.33 1.41c.26 1.03-.38 2.07-1.41 2.33-.15.04-.31.06-.47.06-.86 0-1.65-.59-1.87-1.46l.01-.01Zm55.61-7.27v-.1c0-1.07.85-1.93 1.92-1.93 1.07 0 1.93.85 1.93 1.91v.12c0 1.07-.86 1.93-1.93 1.93-1.07 0-1.93-.86-1.93-1.93h.01ZM1.47 25.15a1.926 1.926 0 0 1-1.42-2.32c.25-1.03 1.3-1.67 2.33-1.42a1.93 1.93 0 0 1 1.41 2.33c-.21.88-1 1.47-1.87 1.47-.15 0-.3-.02-.46-.06h.01Zm51.16-7.49c-.49-.94-.13-2.1.8-2.6.94-.5 2.11-.14 2.6.8.5.94.14 2.11-.8 2.61-.29.15-.6.22-.9.22-.69 0-1.36-.37-1.71-1.03h.01ZM6.91 12.74a1.93 1.93 0 0 1-.17-2.72c.7-.8 1.92-.87 2.72-.17.8.71.87 1.92.17 2.72-.39.43-.91.65-1.45.65-.45 0-.91-.16-1.27-.48Zm37.34-4.48c-.88-.6-1.1-1.8-.5-2.68.6-.87 1.8-1.1 2.68-.49.88.6 1.1 1.8.5 2.68-.37.55-.98.83-1.59.83-.37 0-.75-.11-1.08-.34h-.01ZM17.48 4.27c-.38-1 .12-2.11 1.11-2.48.99-.38 2.11.12 2.49 1.11.38.99-.12 2.11-1.11 2.48-.23.09-.46.13-.69.13-.77 0-1.5-.47-1.8-1.24Zm14.98-.44a1.933 1.933 0 0 1-1.69-2.14A1.933 1.933 0 0 1 32.91 0a1.926 1.926 0 0 1-.22 3.84c-.08 0-.15 0-.23-.01Zm-1.84 49.28c-.11-.86.51-1.65 1.37-1.75.86-.1 1.65.51 1.75 1.37.1.87-.51 1.65-1.37 1.75-.06.01-.13.01-.19.01-.78 0-1.46-.58-1.56-1.39v.01Zm-9.98-.03a1.559 1.559 0 0 1-.91-2.03c.3-.82 1.21-1.23 2.03-.92.82.31 1.23 1.22.92 2.03a1.57 1.57 0 0 1-1.48 1.02c-.19 0-.37-.03-.56-.1Zm20.57-3.18c-.49-.72-.31-1.7.4-2.2.72-.49 1.69-.31 2.2.4.49.71.31 1.7-.4 2.2a1.59 1.59 0 0 1-2.2-.39v-.01Zm-30.3-3.52c-.58-.65-.52-1.64.13-2.22.65-.58 1.64-.52 2.22.13a1.582 1.582 0 0 1-1.18 2.63c-.44 0-.87-.18-1.18-.53l.01-.01Zm38.2-4.26a1.575 1.575 0 0 1-.66-2.13 1.56 1.56 0 0 1 2.12-.66c.77.4 1.07 1.36.66 2.12-.28.54-.83.85-1.39.85-.25 0-.5-.06-.73-.18Zm-43.7-6.18c-.21-.85.31-1.7 1.15-1.91.85-.21 1.7.3 1.91 1.15.21.84-.31 1.7-1.16 1.91-.13.03-.25.04-.38.04-.71 0-1.35-.48-1.53-1.19h.01Zm45.5-5.95v-.09c0-.87.7-1.58 1.57-1.59.87 0 1.58.7 1.58 1.57v.1c0 .87-.7 1.58-1.57 1.58-.87 0-1.58-.71-1.58-1.58v.01ZM6.55 26.04a1.576 1.576 0 0 1-1.16-1.91c.21-.84 1.06-1.36 1.91-1.16.85.21 1.36 1.06 1.16 1.91-.18.72-.82 1.2-1.53 1.2-.12 0-.25-.01-.37-.04h-.01Zm41.86-6.12c-.4-.77-.12-1.72.65-2.13.77-.4 1.72-.12 2.13.65.41.77.12 1.73-.65 2.13-.23.12-.49.19-.74.19-.56 0-1.1-.31-1.39-.84Zm-37.42-4.04c-.65-.57-.71-1.57-.13-2.22a1.57 1.57 0 0 1 2.22-.14c.65.58.71 1.57.14 2.23-.31.35-.75.53-1.19.53-.37 0-.74-.13-1.04-.4Zm30.55-3.66c-.72-.49-.9-1.48-.4-2.2.49-.72 1.47-.9 2.19-.4.72.49.9 1.47.41 2.19-.31.44-.8.69-1.3.69-.31 0-.62-.09-.89-.28h-.01Zm-21.9-3.27c-.31-.81.1-1.72.91-2.03.82-.31 1.73.1 2.03.91.31.81-.1 1.72-.9 2.03-.19.07-.38.1-.57.1-.64 0-1.23-.39-1.47-1.01Zm12.26-.36c-.87-.1-1.48-.88-1.39-1.75.1-.87.89-1.48 1.75-1.38.86.1 1.48.89 1.38 1.75a1.586 1.586 0 0 1-1.75 1.38h.01Zm-1.52 40.13c-.08-.7.41-1.34 1.11-1.42.7-.08 1.34.41 1.43 1.12.08.69-.42 1.34-1.12 1.42h-.15c-.64 0-1.19-.48-1.26-1.12h-.01Zm-8.08-.03a1.272 1.272 0 1 1 1.64-.74 1.28 1.28 0 0 1-1.65.75l.01-.01Zm16.67-2.58c-.4-.58-.26-1.37.32-1.78.58-.4 1.37-.26 1.78.32.4.58.26 1.38-.32 1.78-.22.15-.47.22-.73.22-.4 0-.8-.19-1.05-.55v.01Zm-24.55-2.85c-.47-.53-.42-1.33.1-1.8.53-.47 1.34-.42 1.8.1.47.53.42 1.34-.1 1.8-.24.21-.55.32-.85.32-.35 0-.71-.14-.96-.43l.01.01Zm30.94-3.45c-.62-.33-.87-1.1-.53-1.73a1.277 1.277 0 1 1 .53 1.73ZM9.96 34.8c-.17-.69.24-1.38.93-1.55.68-.17 1.37.25 1.55.93.17.69-.25 1.38-.94 1.55-.1.03-.21.04-.3.04-.58 0-1.1-.39-1.24-.97Zm36.86-4.82v-.07c0-.71.57-1.28 1.27-1.28.71 0 1.28.56 1.28 1.27v.08c0 .71-.58 1.28-1.28 1.28-.71 0-1.28-.57-1.28-1.28h.01Zm-35.94-3.2a1.276 1.276 0 1 1 .6-2.48c.69.17 1.1.86.94 1.55-.14.58-.66.98-1.24.98-.1 0-.2-.01-.3-.04v-.01Zm33.92-4.96c-.33-.62-.1-1.39.53-1.72a1.279 1.279 0 1 1 .6 2.41c-.46 0-.9-.24-1.12-.68l-.01-.01Zm-30.31-3.26a1.28 1.28 0 0 1-.12-1.8 1.28 1.28 0 0 1 1.8-.12c.53.47.58 1.27.11 1.8-.25.28-.6.43-.96.43-.3 0-.6-.1-.84-.32l.01.01Zm24.75-2.97c-.58-.4-.73-1.19-.33-1.78.4-.58 1.19-.73 1.77-.33.58.4.73 1.19.33 1.77-.25.37-.65.56-1.05.56-.25 0-.5-.08-.73-.22h.01ZM21.5 12.95a1.28 1.28 0 0 1 2.39-.91c.25.65-.08 1.39-.74 1.65-.15.06-.3.08-.46.08-.51 0-.99-.31-1.19-.82Zm9.94-.29c-.7-.08-1.2-.72-1.12-1.42.08-.7.72-1.2 1.42-1.12.7.08 1.2.71 1.12 1.42-.07.65-.62 1.12-1.26 1.12h-.16Z"/><g fill="#9758DA" clip-path="url(#b)"><path d="M35.89 58.25c-.13-1.05.62-2.02 1.68-2.14 1.06-.13 2.02.62 2.14 1.68.13 1.05-.62 2.02-1.68 2.14-.08 0-.16.01-.24.01-.96 0-1.79-.72-1.91-1.69h.01Zm-12.19-.04c-1-.38-1.5-1.49-1.12-2.48a1.92 1.92 0 0 1 2.48-1.12c.99.38 1.5 1.49 1.12 2.48-.3.77-1.03 1.25-1.8 1.25-.22 0-.46-.04-.68-.12v-.01Zm25.15-3.9c-.6-.87-.39-2.07.49-2.68.87-.6 2.07-.39 2.68.49.61.87.39 2.07-.48 2.68a1.942 1.942 0 0 1-2.69-.49Zm-37.03-4.29c-.71-.8-.64-2.02.15-2.72.8-.71 2.02-.64 2.72.16.71.8.64 2.02-.16 2.72a1.919 1.919 0 0 1-2.72-.16h.01Zm46.68-5.21c-.94-.5-1.3-1.66-.81-2.61a1.93 1.93 0 0 1 2.6-.81c.94.49 1.3 1.66.81 2.6a1.92 1.92 0 0 1-1.71 1.03c-.3 0-.61-.07-.89-.22v.01ZM5.08 37.25a1.93 1.93 0 0 1 1.41-2.33 1.92 1.92 0 0 1 2.33 1.41c.26 1.03-.38 2.07-1.41 2.33-.15.04-.31.06-.47.06-.86 0-1.65-.59-1.87-1.46l.01-.01Zm55.61-7.27v-.1c0-1.07.85-1.93 1.92-1.93 1.07 0 1.93.85 1.93 1.91v.12c0 1.07-.86 1.93-1.93 1.93-1.07 0-1.93-.86-1.93-1.93h.01ZM6.47 25.15a1.926 1.926 0 0 1-1.42-2.32c.25-1.03 1.3-1.67 2.33-1.42a1.93 1.93 0 0 1 1.41 2.33c-.21.88-1 1.47-1.87 1.47-.15 0-.3-.02-.46-.06h.01Zm51.16-7.49c-.49-.94-.13-2.1.8-2.6.94-.5 2.11-.14 2.6.8.5.94.14 2.11-.8 2.61-.29.15-.6.22-.9.22-.69 0-1.36-.37-1.71-1.03h.01Zm-45.72-4.92a1.93 1.93 0 0 1-.17-2.72c.7-.8 1.92-.87 2.72-.17.8.71.87 1.92.17 2.72-.39.43-.91.65-1.45.65-.45 0-.91-.16-1.27-.48Zm37.34-4.48c-.88-.6-1.1-1.8-.5-2.68.6-.87 1.8-1.1 2.68-.49.88.6 1.1 1.8.5 2.68-.37.55-.98.83-1.59.83-.37 0-.75-.11-1.08-.34h-.01ZM22.48 4.27c-.38-1 .12-2.11 1.11-2.48.99-.38 2.11.12 2.49 1.11.38.99-.12 2.11-1.11 2.48-.23.09-.46.13-.69.13-.77 0-1.5-.47-1.8-1.24Zm14.98-.44a1.933 1.933 0 0 1-1.69-2.14A1.933 1.933 0 0 1 37.91 0a1.926 1.926 0 0 1-.22 3.84c-.08 0-.15 0-.23-.01Zm-1.84 49.28c-.11-.86.51-1.65 1.37-1.75.86-.1 1.65.51 1.75 1.37.1.87-.51 1.65-1.37 1.75-.06.01-.13.01-.19.01-.78 0-1.46-.58-1.56-1.39v.01Zm-9.98-.03a1.559 1.559 0 0 1-.91-2.03c.3-.82 1.21-1.23 2.03-.92.82.31 1.23 1.22.92 2.03a1.57 1.57 0 0 1-1.48 1.02c-.19 0-.37-.03-.56-.1Zm20.57-3.18c-.49-.72-.31-1.7.4-2.2.72-.49 1.69-.31 2.2.4.49.71.31 1.7-.4 2.2a1.59 1.59 0 0 1-2.2-.39v-.01Zm-30.3-3.52c-.58-.65-.52-1.64.13-2.22.65-.58 1.64-.52 2.22.13a1.582 1.582 0 0 1-1.18 2.63c-.44 0-.87-.18-1.18-.53l.01-.01Zm38.2-4.26a1.575 1.575 0 0 1-.66-2.13 1.56 1.56 0 0 1 2.12-.66c.77.4 1.07 1.36.66 2.12-.28.54-.83.85-1.39.85-.25 0-.5-.06-.73-.18Zm-43.7-6.18c-.21-.85.31-1.7 1.15-1.91.85-.21 1.7.3 1.91 1.15.21.84-.31 1.7-1.16 1.91-.13.03-.25.04-.38.04-.71 0-1.35-.48-1.53-1.19h.01Zm45.5-5.95v-.09c0-.87.7-1.58 1.57-1.59.87 0 1.58.7 1.58 1.57v.1c0 .87-.7 1.58-1.57 1.58-.87 0-1.58-.71-1.58-1.58v.01Zm-44.36-3.95a1.576 1.576 0 0 1-1.16-1.91c.21-.84 1.06-1.36 1.91-1.16.85.21 1.36 1.06 1.16 1.91-.18.72-.82 1.2-1.53 1.2-.12 0-.25-.01-.37-.04h-.01Zm41.86-6.12c-.4-.77-.12-1.72.65-2.13.77-.4 1.72-.12 2.13.65.41.77.12 1.73-.65 2.13-.23.12-.49.19-.74.19-.56 0-1.1-.31-1.39-.84Zm-37.42-4.04c-.65-.57-.71-1.57-.13-2.22a1.57 1.57 0 0 1 2.22-.14c.65.58.71 1.57.14 2.23-.31.35-.75.53-1.19.53-.37 0-.74-.13-1.04-.4Zm30.55-3.66c-.72-.49-.9-1.48-.4-2.2.49-.72 1.47-.9 2.19-.4.72.49.9 1.47.41 2.19-.31.44-.8.69-1.3.69-.31 0-.62-.09-.89-.28h-.01Zm-21.9-3.27c-.31-.81.1-1.72.91-2.03.82-.31 1.73.1 2.03.91.31.81-.1 1.72-.9 2.03-.19.07-.38.1-.57.1-.64 0-1.23-.39-1.47-1.01Zm12.26-.36c-.87-.1-1.48-.88-1.39-1.75.1-.87.89-1.48 1.75-1.38.86.1 1.48.89 1.38 1.75a1.586 1.586 0 0 1-1.75 1.38h.01Zm-1.52 40.13c-.08-.7.41-1.34 1.11-1.42.7-.08 1.34.41 1.43 1.12.08.69-.42 1.34-1.12 1.42h-.15c-.64 0-1.19-.48-1.26-1.12h-.01Zm-8.08-.03a1.272 1.272 0 1 1 1.64-.74 1.28 1.28 0 0 1-1.65.75l.01-.01Zm16.67-2.58c-.4-.58-.26-1.37.32-1.78.58-.4 1.37-.26 1.78.32.4.58.26 1.38-.32 1.78-.22.15-.47.22-.73.22-.4 0-.8-.19-1.05-.55v.01Zm-24.55-2.85c-.47-.53-.42-1.33.1-1.8.53-.47 1.34-.42 1.8.1.47.53.42 1.34-.1 1.8-.24.21-.55.32-.85.32-.35 0-.71-.14-.96-.43l.01.01Zm30.94-3.45c-.62-.33-.87-1.1-.53-1.73a1.277 1.277 0 1 1 .53 1.73Zm-35.4-5.01c-.17-.69.24-1.38.93-1.55.68-.17 1.37.25 1.55.93.17.69-.25 1.38-.94 1.55-.1.03-.21.04-.3.04-.58 0-1.1-.39-1.24-.97Zm36.86-4.82v-.07c0-.71.57-1.28 1.27-1.28.71 0 1.28.56 1.28 1.27v.08c0 .71-.58 1.28-1.28 1.28-.71 0-1.28-.57-1.28-1.28h.01Zm-35.94-3.2a1.276 1.276 0 1 1 .6-2.48c.69.17 1.1.86.94 1.55-.14.58-.66.98-1.24.98-.1 0-.2-.01-.3-.04v-.01Zm33.92-4.96c-.33-.62-.1-1.39.53-1.72a1.279 1.279 0 1 1 .6 2.41c-.46 0-.9-.24-1.12-.68l-.01-.01Zm-30.31-3.26a1.28 1.28 0 0 1-.12-1.8 1.28 1.28 0 0 1 1.8-.12c.53.47.58 1.27.11 1.8-.25.28-.6.43-.96.43-.3 0-.6-.1-.84-.32l.01.01Zm24.75-2.97c-.58-.4-.73-1.19-.33-1.78.4-.58 1.19-.73 1.77-.33.58.4.73 1.19.33 1.77-.25.37-.65.56-1.05.56-.25 0-.5-.08-.73-.22h.01ZM26.5 12.95a1.28 1.28 0 0 1 2.39-.91c.25.65-.08 1.39-.74 1.65-.15.06-.3.08-.46.08-.51 0-.99-.31-1.19-.82Zm9.94-.29c-.7-.08-1.2-.72-1.12-1.42.08-.7.72-1.2 1.42-1.12.7.08 1.2.71 1.12 1.42-.07.65-.62 1.12-1.26 1.12h-.16Z"/></g></g><defs><clipPath id="a"><path fill="#fff" d="M0 0h59.55v59.95H0z"/></clipPath><clipPath id="b"><path fill="#fff" d="M5 0h59.55v59.95H5z"/></clipPath></defs></svg>