<svg xmlns="http://www.w3.org/2000/svg" width="80" height="80" fill="none" viewBox="0 0 80 80"><g clip-path="url(#a)"><path fill="#000" d="M40 80c22.091 0 40-17.909 40-40S62.091 0 40 0 0 17.909 0 40s17.909 40 40 40Z"/><path fill="#fff" d="m26.53 68.582-.033-.545c.341-.118.759-.069 1.123.083.879.368 1.159 1.07.798 1.931l-1.181 2.823.834.35-.223.532-.834-.35-.428 1.022-.63-.264.427-1.021-1.42-.594.223-.533 1.42.594 1.167-2.787c.23-.55.073-.971-.45-1.19-.258-.108-.55-.136-.794-.05Zm-5.92 1.479c-1.097-.712-1.362-1.665-.65-2.762l1.71-2.632.548.357-.43.661c.542-.268 1.215-.209 1.917.247.96.624 1.225 1.507.748 2.241-.424.654-1.2.93-2.42.139l-1.347-.876-.168.259c-.472.726-.317 1.389.474 1.903.549.356 1.191.498 1.738.416l-.02.596c-.664.085-1.43-.114-2.1-.549Zm2.713-3.735c-.646-.42-1.321-.422-1.909-.011l-.45.694 1.331.865c.823.534 1.3.384 1.583-.051.32-.493.123-1.057-.555-1.497Zm-6.016-5.823-.322 3.243 1.62.051 1.011-1.03.488.477-4.998 5.1-.488-.477 3.388-3.458-4.092-.143-.604-.593 2.994.038.405-3.794.598.586Zm-5.758-3.873c.047-.032.116-.067.18-.11l2.378 3.504c.832-.658.96-1.721.338-2.637-.345-.51-.836-.84-1.419-.91l.15-.567c.7.072 1.334.492 1.782 1.153.886 1.306.6 2.803-.643 3.646-1.243.842-2.716.574-3.515-.605-.8-1.178-.51-2.62.749-3.473Zm-.263 3.145c.55.812 1.53 1.02 2.398.535l-2.015-2.97c-.772.628-.94 1.614-.383 2.435ZM5.819 47.984l-.18-.649 6.138.925c1.069.144 1.519.578 1.712 1.274.125.454.098.931-.117 1.31l-.576-.17c.174-.308.222-.64.124-.993-.12-.436-.407-.676-1.096-.784l-.532-.083-4.265 3.53-.19-.687 3.636-2.985-4.654-.688Zm4.56-5.322c.105 1.479-.892 2.65-2.39 2.756-1.498.107-2.64-.912-2.746-2.39-.105-1.479.883-2.64 2.381-2.746 1.498-.106 2.65.902 2.755 2.38Zm-.605.044c-.076-1.076-.92-1.817-2.1-1.733-1.182.084-1.912.937-1.836 2.012.077 1.075.921 1.826 2.102 1.742 1.18-.084 1.91-.946 1.834-2.021Zm-3.849-8.843.096-.677 5.012.715-.093.648-.914-.13c.56.439.82 1.137.705 1.937-.182 1.277-1.016 2.014-2.455 1.808L5.37 37.75l.097-.677 2.839.405c1.067.153 1.689-.322 1.825-1.275.15-1.048-.433-1.802-1.577-1.965l-2.63-.376Zm2.122-3.643c-.536-.517-.665-1.243-.365-2.126l.629.213c-.019.055-.046.107-.062.152-.34 1.003.09 1.83 1.22 2.214l2.441.83-.22.648-4.793-1.63.211-.62.939.32Zm4.867-10.947c.87-1.152 2.35-1.385 3.57-.463 1.23.928 1.409 2.415.539 3.567-.487.645-1.181.989-1.959.932l2.25 1.7-.412.545-5.529-4.176.395-.523.798.604c-.288-.736-.156-1.517.348-2.186Zm3.596 2.777c.644-.853.507-1.981-.437-2.695-.937-.707-2.068-.536-2.712.316-.65.86-.5 1.987.438 2.695.944.713 2.061.544 2.711-.316Zm.82-5.928c-.217-.712.02-1.409.71-2.037l.448.491c-.043.04-.092.071-.128.104-.783.712-.807 1.644-.005 2.527l1.735 1.908-.505.46-3.405-3.746.484-.44.667.733Zm7.637-.533c-1.262.776-2.761.433-3.548-.845-.787-1.279-.412-2.764.85-3.54 1.262-.777 2.748-.437 3.535.841.787 1.279.426 2.767-.837 3.544Zm-.317-.517c.918-.565 1.184-1.655.564-2.664-.62-1.008-1.714-1.261-2.632-.696-.918.565-1.193 1.66-.573 2.669.62 1.008 1.723 1.256 2.64.691Zm2.31-7.334a.495.495 0 0 1-.646-.27.493.493 0 0 1 .287-.633.485.485 0 1 1 .36.903Zm1.926 7.935c-.375.15-.799.204-1.113.091l.031-.572c.252.086.534.067.83-.05.5-.2.656-.614.425-1.195l-2.011-5.052.635-.253 2.01 5.052c.346.867.087 1.623-.807 1.979Zm7.404-6.692c.013.057.02.134.036.21l-4.14.893c.3 1.019 1.238 1.535 2.32 1.301.602-.13 1.091-.462 1.374-.976l.47.351c-.328.623-.954 1.053-1.735 1.222-1.543.333-2.824-.493-3.14-1.96-.318-1.468.482-2.734 1.874-3.034 1.393-.301 2.62.507 2.942 1.993Zm-2.817-1.42c-.96.208-1.518 1.037-1.394 2.025l3.51-.758c-.295-.95-1.147-1.476-2.116-1.267Zm6.98 3.933c-1.51.02-2.622-1.034-2.642-2.544-.02-1.511 1.063-2.584 2.574-2.605.856-.01 1.582.316 1.995.975l-.505.353c-.353-.505-.895-.739-1.483-.73-1.106.014-1.904.814-1.888 1.997.016 1.194.834 1.962 1.94 1.948.588-.008 1.124-.246 1.463-.761l.515.34c-.395.66-1.112 1.015-1.969 1.027Zm6.402-.114.157.523c-.306.193-.724.24-1.113.175-.94-.158-1.373-.777-1.218-1.698l.506-3.018-.892-.15.095-.569.893.15.183-1.092.674.113-.184 1.092 1.52.254-.096.57-1.519-.255-.5 2.98c-.099.589.151.963.711 1.056.275.047.565.007.783-.132Zm8.295 3.24-.002.547c-.348.096-.762.02-1.115-.154-.855-.422-1.09-1.14-.678-1.976l1.356-2.745-.812-.4.256-.518.811.4.49-.992.613.303-.49.992 1.38.682-.255.518-1.38-.682-1.339 2.71c-.264.535-.133.964.377 1.216.25.123.538.17.788.1Zm3.15 3.195c-1.185-.891-1.415-2.412-.512-3.612.902-1.2 2.42-1.394 3.606-.504 1.184.891 1.412 2.399.51 3.598-.904 1.2-2.42 1.408-3.605.518Zm.364-.485c.861.648 1.974.497 2.685-.449.712-.946.548-2.057-.314-2.705-.862-.648-1.982-.503-2.693.443-.712.947-.54 2.063.322 2.711Zm11.046 5.668c.676 1.03.545 2.129-.67 2.926l-2.455 1.61-.375-.572 2.398-1.573c.894-.586 1.046-1.353.519-2.158-.597-.91-1.535-1.111-2.5-.478l-2.222 1.456-.375-.57 4.234-2.777.359.547-.781.512c.716-.032 1.388.344 1.868 1.077Zm1.449 9.318c-.054.021-.129.04-.2.069l-1.55-3.942c-.956.46-1.315 1.468-.91 2.499.226.573.632 1.003 1.185 1.199l-.271.52c-.667-.224-1.193-.772-1.486-1.516-.576-1.469.032-2.866 1.43-3.415 1.397-.55 2.775.037 3.296 1.362.52 1.326-.079 2.668-1.494 3.224Zm.948-3.009c-.36-.914-1.268-1.332-2.223-1.05l1.313 3.341c.891-.443 1.272-1.368.91-2.29Zm2.938 11.345.088.62-5.282-1.181-.091-.639 3.88-2.167-4.331-.996-.091-.638 4.742-2.602.092.648-4.034 2.18 4.488 1.002.083.582-4.03 2.208 4.486.983Zm-1.415 9.534c-.282 1.199-1.169 1.86-2.584 1.529l-2.858-.671.157-.665 2.792.655c1.04.244 1.701-.174 1.921-1.111.249-1.059-.251-1.878-1.375-2.142l-2.586-.607.156-.665 6.952 1.632-.156.665-2.886-.677c.486.5.662 1.223.466 2.057Zm-5.76 7.468c-.051-.024-.117-.066-.187-.098l1.79-3.838c-.992-.378-1.97.058-2.438 1.061-.26.558-.292 1.149-.053 1.685l-.564.162c-.297-.638-.262-1.397.076-2.12.667-1.431 2.1-1.952 3.46-1.318 1.36.635 1.886 2.038 1.283 3.328-.602 1.291-1.988 1.78-3.366 1.138Zm2.835-1.386c.415-.89.092-1.836-.77-2.334l-1.517 3.253c.935.34 1.868-.02 2.287-.919Zm-1.267 5.385a.494.494 0 0 1 .688-.134.493.493 0 0 1 .113.685.485.485 0 1 1-.8-.551Zm-4.886-3.782 4.17 2.87-.387.562-4.17-2.87.387-.562Zm-1.522 9.452-.458.467-3.175-3.113c-1.243-1.219-1.207-2.383-.035-3.58.647-.659 1.48-1.11 2.208-1.137l.128.611c-.646.04-1.344.381-1.89.938-.896.914-.888 1.744.006 2.62l.46.451c-.164-.753.101-1.505.68-2.096 1.011-1.03 2.5-1.107 3.539-.089 1.038 1.017.977 2.495-.034 3.526-.592.604-1.352.884-2.123.721l.695.68Zm-1.69-4.366c-.78.797-.804 1.907-.02 2.675.782.768 1.885.716 2.666-.081.782-.797.805-1.893.021-2.661-.783-.769-1.885-.73-2.667.067Zm-3.118 7.871c-1.029.677-2.128.548-2.927-.665l-1.615-2.451.57-.376 1.578 2.395c.588.892 1.356 1.043 2.16.513.908-.598 1.108-1.537.472-2.5L57 65.523l.57-.375 3.93 5.963-.571.376-1.631-2.475c.01.697-.36 1.343-1.075 1.815ZM50.085 70l-.411-.36c.156-.326.484-.59.848-.741.879-.368 1.575-.076 1.936.786l1.181 2.823.835-.35.223.533-.835.35.428 1.02-.63.264-.428-1.02-1.42.594-.223-.533 1.42-.594-1.167-2.788c-.23-.55-.64-.733-1.165-.514-.257.108-.481.295-.592.53ZM38.298 43.137l3.029-2.986a.602.602 0 0 0 .127-.198.602.602 0 0 0 .004-.457.603.603 0 0 0-.125-.2l-2.987-3.028a.603.603 0 1 0-.86.848l1.971 1.993-4.565-.032a.602.602 0 0 0-.009 1.203l4.566.032-2 1.965a.6.6 0 0 0-.005.854.603.603 0 0 0 .854.006Z"/></g><defs><clipPath id="a"><path fill="#fff" d="M0 0h80v80H0z"/></clipPath></defs></svg>