<svg xmlns="http://www.w3.org/2000/svg" width="135" height="68" fill="none" viewBox="0 0 135 68"><g fill="#58126A" clip-path="url(#a)"><path d="M15.174 23.487 0 23.36l.419.126C8.12 27.903 17.093 39.295 20.616 44.44L61.85 3.036 64.674.025c-.167-.1-.558.125-.732.25l-28.884 24.09c-6.593 5.27-9.942 6.9-12.244 6.9-1.842 0-4.814-4.349-6.07-6.523-.335-.904-1.186-1.213-1.57-1.255ZM62.79 5.67 5.965 67.024h18.732l-1.883-1.756c-1.005-.602-1.256-1.673-1.256-2.133.167-4.316 2.86-6.566 4.186-7.152 2.846-.803 6.837 5.939 8.477 9.41.67 1.707 1.883 2.05 2.407 2.008l14.65-.377C40.145 60.8 36.105 54.98 35.478 52.846c-3.517-4.918 5.511-18.193 10.465-24.215L62.79 5.671Z"/><path d="M60.33 52.444h-2.27l-2.053-3.536-2.015 3.536h-2.258l3.145-5.18-2.987-5.007h2.234l1.954 3.303 1.918-3.303h2.125l-2.962 4.919 3.168 5.268Zm4.29-1.98.51 1.602c-.388.335-.959.495-1.541.495-1.542 0-2.44-.946-2.44-2.81v-3.216H60.14V44.79h1.008v-1.907h1.893v1.907h1.627v1.746h-1.627v3.188c0 .67.304 1.033.814 1.033.279 0 .558-.102.765-.291Zm3.382-4.816c.462-.757 1.238-1.15 2.246-1.15v2.096c-.158-.015-.28-.03-.425-.03-1.044 0-1.736.684-1.736 2.184v3.696h-1.894v-7.83h1.81v1.034Zm9.71 2.91c0 .175-.024.422-.036.612h-4.94c.181.975.873 1.572 1.869 1.572.692 0 1.19-.248 1.638-.757l1.008 1.31c-.607.83-1.517 1.266-2.695 1.266-2.258 0-3.727-1.703-3.727-4.032 0-2.343 1.493-4.031 3.484-4.031 1.918 0 3.4 1.543 3.4 4.06Zm-3.387-2.343c-.862 0-1.48.626-1.614 1.63h3.217c-.134-.99-.753-1.63-1.603-1.63Zm13.012-1.717c1.554 0 2.671 1.077 2.671 3.464v4.482h-1.894v-4.133c0-1.266-.473-1.848-1.238-1.848-.85 0-1.445.654-1.445 2.052v3.93h-1.893V48.31c0-1.266-.45-1.848-1.239-1.848-.837 0-1.432.654-1.432 2.052v3.93h-1.894v-7.83h1.809v.902c.486-.67 1.214-1.02 2.052-1.02.91 0 1.687.423 2.148 1.282a2.767 2.767 0 0 1 2.355-1.281Zm10.813 4.06c0 .175-.024.422-.036.612h-4.94c.181.975.873 1.572 1.869 1.572.691 0 1.19-.248 1.638-.757l1.008 1.31c-.607.83-1.517 1.266-2.695 1.266-2.258 0-3.727-1.703-3.727-4.032 0-2.343 1.493-4.031 3.484-4.031 1.918 0 3.4 1.543 3.4 4.06Zm-3.387-2.343c-.862 0-1.48.626-1.614 1.63h3.217c-.134-.99-.753-1.63-1.603-1.63Zm9.98 6.23v-8.267h-2.719v-1.921h7.405v1.92h-2.719v8.267h-1.967Zm8.054.116c-2.076 0-3.593-1.674-3.593-4.032s1.517-4.031 3.593-4.031 3.581 1.674 3.581 4.031c0 2.358-1.505 4.032-3.581 4.032Zm0-1.863c.947 0 1.663-.815 1.663-2.169 0-1.353-.716-2.168-1.663-2.168-.947 0-1.675.815-1.675 2.168 0 1.354.728 2.169 1.675 2.169Zm7.955 1.863c-2.076 0-3.593-1.674-3.593-4.032s1.517-4.031 3.593-4.031 3.581 1.674 3.581 4.031c0 2.358-1.505 4.032-3.581 4.032Zm0-1.863c.947 0 1.663-.815 1.663-2.169 0-1.353-.716-2.168-1.663-2.168-.947 0-1.675.815-1.675 2.168 0 1.354.728 2.169 1.675 2.169Zm4.847 1.746V41.645h1.894v10.8h-1.894Zm5.849.117c-1.105 0-2.222-.364-2.829-.844l.631-1.63c.583.45 1.469.756 2.27.756.874 0 1.202-.276 1.202-.713 0-1.28-3.945.03-3.945-3.1 0-1.484 1.117-2.532 3.023-2.532.898 0 1.893.247 2.513.684l-.632 1.615a3.272 3.272 0 0 0-1.881-.582c-.85 0-1.214.32-1.214.728 0 1.339 3.945.044 3.945 3.129 0 1.455-1.129 2.489-3.083 2.489Z"/></g><defs><clipPath id="a"><path fill="#fff" d="M0 0h135v67.5H0z"/></clipPath></defs></svg>