<svg xmlns="http://www.w3.org/2000/svg" width="65" height="68" fill="none" viewBox="0 0 65 68"><path fill="#58126A" d="M15.174 23.487 0 23.36l.419.126C8.12 27.903 17.093 39.295 20.616 44.44L61.85 3.036 64.674.025c-.167-.1-.558.125-.732.25l-28.884 24.09c-6.593 5.27-9.942 6.9-12.244 6.9-1.842 0-4.814-4.349-6.07-6.523-.335-.904-1.186-1.213-1.57-1.255ZM62.79 5.67 5.965 67.024h18.732l-1.883-1.756c-1.005-.602-1.256-1.673-1.256-2.133.167-4.316 2.86-6.566 4.186-7.152 2.846-.803 6.837 5.939 8.477 9.41.67 1.707 1.883 2.05 2.407 2.008l14.65-.377C40.145 60.8 36.105 54.98 35.478 52.846c-3.517-4.918 5.511-18.193 10.465-24.215L62.79 5.671Z"/></svg>